{"glyphs":{"0":{"ha":757,"x_min":61,"x_max":698,"o":"m 696 437 q 696 325 696 437 q 611 95 696 214 q 378 -23 525 -23 q 147 97 231 -23 q 62 438 62 217 q 147 780 62 661 q 378 900 231 899 q 611 781 525 901 q 696 437 696 661 m 556 333 l 556 547 q 508 794 556 714 q 379 874 461 874 q 250 794 297 874 q 203 547 203 714 l 203 333 q 250 84 203 164 q 379 4 297 4 q 507 83 459 4 q 556 333 556 162 z "},"1":{"ha":372,"x_min":57,"x_max":322,"o":"m 57 855 l 57 878 l 244 878 l 244 32 l 321 23 l 321 0 l 57 0 l 57 23 l 134 32 l 134 846 l 57 855 z "},"2":{"ha":666,"x_min":39,"x_max":591,"o":"m 591 278 l 591 0 l 39 0 l 39 84 l 271 321 q 459 692 459 509 q 304 874 458 874 q 210 845 251 874 q 169 762 169 816 q 226 680 169 709 q 202 621 226 641 q 144 600 178 600 q 85 626 110 600 q 61 696 61 652 q 139 843 61 785 q 337 901 217 901 q 522 837 458 901 q 586 666 586 773 q 500 468 586 559 q 372 345 459 424 l 109 116 l 518 116 l 563 278 l 591 278 z "},"3":{"ha":673,"x_min":43,"x_max":621,"o":"m 208 477 l 208 500 q 388 564 324 507 q 452 703 452 620 q 412 831 452 787 q 308 874 372 874 q 210 854 244 874 q 176 798 176 833 q 231 714 176 741 q 208 656 231 677 q 153 636 185 636 q 96 662 121 636 q 71 728 71 687 q 144 851 71 801 q 329 901 217 901 q 512 850 442 901 q 582 707 582 800 q 315 491 582 525 l 315 486 q 536 413 452 479 q 620 235 620 347 q 535 50 620 123 q 292 -23 450 -23 q 116 35 189 -23 q 43 178 43 93 q 69 248 43 223 q 128 272 94 272 q 186 252 162 272 q 210 191 210 231 q 152 111 153 164 q 190 31 151 59 q 299 4 228 4 q 419 63 370 4 q 468 228 468 123 q 208 477 468 459 z "},"4":{"ha":637,"x_min":0,"x_max":591,"o":"m 0 210 l 0 233 l 465 878 l 491 878 l 491 262 l 591 262 l 591 210 l 491 210 l 491 39 l 591 23 l 591 0 l 269 0 l 269 23 l 370 39 l 370 210 l 0 210 m 53 262 l 370 262 l 370 700 l 53 262 z "},"5":{"ha":661,"x_min":27,"x_max":621,"o":"m 137 497 l 118 511 l 167 878 l 458 878 q 554 889 524 878 q 595 937 584 899 l 620 935 q 567 789 613 828 q 442 750 522 750 l 178 750 l 151 532 q 265 547 205 547 q 508 463 413 547 q 604 255 604 379 q 525 68 604 151 q 265 -23 442 -23 q 100 35 171 -23 q 28 178 28 93 q 53 248 28 223 q 111 272 77 272 q 170 252 146 272 q 194 191 194 231 q 137 111 137 164 q 175 31 137 59 q 274 4 212 4 q 404 74 356 4 q 452 264 452 144 q 395 450 452 385 q 246 516 338 516 q 137 497 196 515 z "},"6":{"ha":705,"x_min":61,"x_max":653,"o":"m 198 586 l 198 465 q 382 547 265 547 q 576 473 499 547 q 653 266 653 399 q 567 55 653 134 q 358 -23 481 -23 q 125 112 191 -23 q 62 453 62 235 q 149 786 62 671 q 386 901 235 901 q 558 858 490 901 q 627 751 627 816 q 603 688 627 714 q 546 662 579 662 q 493 679 513 662 q 474 725 474 696 q 506 785 506 748 q 472 850 506 823 q 386 878 438 878 q 198 586 199 878 m 520 321 q 369 520 520 520 q 269 491 315 520 q 198 411 223 461 l 198 251 q 358 4 198 2 q 478 59 436 4 q 520 212 520 114 l 520 321 z "},"7":{"ha":543,"x_min":43,"x_max":527,"o":"m 303 0 l 151 0 q 253 313 169 158 q 326 447 292 383 q 470 764 424 620 l 103 764 l 71 634 l 43 634 l 43 878 l 525 878 q 479 641 513 766 q 410 426 445 516 q 303 0 317 185 z "},"8":{"ha":703,"x_min":55,"x_max":653,"o":"m 57 207 q 183 429 57 344 q 258 472 214 450 l 208 506 q 91 687 91 589 q 169 843 91 785 q 352 901 248 901 q 530 851 456 901 q 604 723 604 801 q 562 594 604 645 q 445 502 520 543 q 562 421 527 450 q 625 342 597 392 q 653 235 653 292 q 564 46 653 116 q 345 -23 475 -23 q 135 37 214 -23 q 57 207 57 98 m 292 452 q 167 194 167 356 q 213 61 167 118 q 348 4 258 4 q 493 53 438 4 q 548 164 548 101 q 517 275 548 226 q 411 376 486 324 l 292 452 m 349 874 q 315 874 349 874 q 234 839 281 874 q 187 753 187 803 q 215 667 187 703 q 297 595 242 630 l 413 520 q 504 712 504 584 q 460 829 504 783 q 349 874 417 874 z "},"9":{"ha":705,"x_min":53,"x_max":645,"o":"m 321 0 q 507 292 507 0 l 507 413 q 324 331 442 331 q 130 405 207 331 q 53 612 53 479 q 139 823 53 744 q 349 901 224 901 q 582 766 515 901 q 645 425 645 643 q 558 92 645 207 q 321 -23 472 -23 q 150 20 217 -23 q 82 126 82 62 q 105 190 82 164 q 160 215 128 215 q 212 199 192 215 q 231 153 231 182 q 202 93 201 130 q 236 28 203 55 q 321 0 269 0 m 185 557 q 338 358 185 358 q 437 387 390 358 q 509 467 484 417 l 511 620 l 511 627 q 349 874 511 876 q 228 819 271 874 q 185 666 185 764 l 185 557 z "}," ":{"ha":260,"x_min":0,"x_max":0,"o":""},"!":{"ha":280,"x_min":75,"x_max":207,"o":"m 186 9 q 177 -1 186 9 q 140 -11 167 -11 q 94 9 112 -11 q 77 55 77 28 q 94 100 77 82 q 140 118 112 118 q 186 100 167 118 q 205 55 205 82 q 186 9 205 28 m 153 182 l 126 182 q 102 557 125 338 q 80 813 80 776 q 96 869 80 849 q 140 889 112 889 q 184 869 167 889 q 201 812 201 849 q 179 556 201 775 q 153 182 157 338 z "},"\"":{"ha":297,"x_min":46,"x_max":253,"o":"m 98 620 l 80 620 q 61 759 75 693 q 48 844 48 826 q 59 875 48 862 q 89 889 69 889 q 119 875 109 889 q 130 844 130 862 q 117 759 130 826 q 98 620 103 693 m 219 620 l 201 620 q 183 759 196 693 q 169 844 169 826 q 180 875 169 862 q 210 889 191 889 q 240 875 230 889 q 251 844 251 862 q 238 759 251 826 q 219 620 224 693 z "},"#":{"ha":636,"x_min":39,"x_max":595,"o":"m 77 420 l 77 470 l 198 470 l 258 785 l 306 785 l 248 470 l 417 470 l 477 785 l 525 785 l 467 470 l 593 470 l 593 420 l 458 420 l 433 280 l 557 280 l 557 231 l 422 231 l 379 0 l 329 0 l 372 231 l 203 231 l 158 0 l 110 0 l 151 231 l 39 231 l 39 280 l 162 280 l 189 420 l 77 420 m 239 420 l 212 280 l 381 280 l 408 420 l 239 420 z "},"$":{"ha":719,"x_min":71,"x_max":666,"o":"m 390 -23 l 374 -21 l 374 -116 l 356 -116 l 356 -20 q 189 37 269 -12 l 96 -11 l 71 -11 l 71 271 l 96 271 l 191 68 q 356 4 265 16 l 356 394 l 267 417 q 123 500 171 442 q 75 641 75 559 q 142 830 75 759 q 331 901 210 901 q 356 899 347 901 l 356 981 l 374 981 l 374 897 q 395 894 379 897 l 395 981 l 411 981 l 411 894 q 511 865 465 885 l 591 901 l 614 901 l 614 675 l 591 675 l 511 835 q 411 867 465 858 l 411 513 l 477 497 q 620 415 573 472 q 666 240 666 358 q 597 53 666 123 q 411 -21 529 -16 l 411 -116 l 395 -116 l 395 -23 l 390 -23 m 126 698 q 281 547 126 586 l 356 527 l 356 874 q 331 874 349 876 q 182 826 237 874 q 126 698 126 778 m 449 370 l 411 379 l 411 4 q 563 57 506 7 q 620 186 620 107 q 580 306 620 265 q 449 370 540 347 m 374 4 q 395 4 381 2 l 395 383 l 374 388 l 374 4 m 395 871 l 374 874 l 374 522 l 395 516 l 395 871 z "},"%":{"ha":903,"x_min":39,"x_max":865,"o":"m 693 -5 q 565 56 613 -5 q 518 233 518 118 q 565 411 518 351 q 693 472 613 472 q 818 411 771 472 q 865 233 865 351 q 818 56 865 118 q 693 -5 771 -5 m 780 178 l 780 290 q 693 449 780 449 q 604 290 604 449 l 604 178 q 693 18 604 18 q 780 178 780 18 m 212 406 q 86 467 134 406 q 39 646 39 529 q 86 823 39 762 q 212 883 134 883 q 339 822 292 883 q 386 646 386 760 q 339 467 386 529 q 212 406 292 406 m 301 589 l 301 700 q 212 860 301 860 q 125 700 125 860 l 125 589 q 212 431 125 431 q 301 589 301 431 m 700 878 l 262 0 l 205 0 l 645 878 l 700 878 z "},"&":{"ha":896,"x_min":55,"x_max":878,"o":"m 486 317 q 376 258 376 317 q 410 226 376 226 q 459 256 445 226 q 513 196 513 244 q 494 150 513 169 q 441 130 475 130 q 378 166 406 130 q 351 262 351 203 q 398 366 351 321 q 525 411 445 411 q 642 402 577 411 q 750 392 707 392 q 824 408 792 392 q 855 452 855 424 q 820 484 855 484 q 771 452 785 484 q 718 513 718 465 q 736 559 718 540 q 791 579 755 579 q 852 547 826 579 q 878 465 878 515 q 714 292 878 292 q 636 297 666 292 q 645 217 645 253 q 580 40 645 103 q 408 -23 516 -23 q 144 48 231 -23 q 57 237 57 119 q 141 418 57 354 q 360 486 224 481 l 360 491 q 158 556 224 507 q 93 702 93 604 q 167 851 93 801 q 374 901 242 901 q 523 857 463 901 q 582 743 582 814 q 562 686 582 707 q 515 666 541 666 q 470 683 488 666 q 452 730 452 700 q 497 801 499 751 q 467 854 497 833 q 375 874 438 874 q 267 831 312 874 q 223 714 223 787 q 284 557 223 607 q 467 500 345 507 l 467 477 q 207 239 207 459 q 266 67 207 130 q 416 4 326 4 q 562 58 506 4 q 618 214 618 112 q 605 301 618 255 q 564 306 591 304 q 486 317 516 317 z "},"'":{"ha":176,"x_min":46,"x_max":132,"o":"m 98 620 l 80 620 q 61 759 75 693 q 48 844 48 826 q 59 875 48 862 q 89 889 69 889 q 119 875 109 889 q 130 844 130 862 q 117 759 130 826 q 98 620 103 693 z "},"(":{"ha":376,"x_min":39,"x_max":385,"o":"m 171 392 q 240 -11 171 130 q 385 -187 310 -151 l 377 -214 q 131 -6 221 -169 q 41 392 41 157 q 131 788 41 627 q 377 995 221 949 l 385 970 q 171 392 171 894 z "},")":{"ha":376,"x_min":-7,"x_max":337,"o":"m 207 392 q 137 -11 207 130 q -7 -187 68 -151 l 0 -214 q 247 -6 157 -169 q 337 392 337 157 q 247 788 337 627 q 0 995 157 949 l -7 970 q 207 392 207 894 z "},"*":{"ha":493,"x_min":59,"x_max":434,"o":"m 240 630 l 217 798 q 225 819 217 810 q 247 828 233 828 q 269 819 260 828 q 278 799 278 810 q 266 714 278 787 q 255 630 255 641 q 321 681 265 636 q 388 734 377 726 q 409 741 399 741 q 426 728 418 741 q 433 703 433 716 q 417 682 433 691 q 338 651 406 675 q 262 620 271 627 q 338 586 271 613 q 419 552 406 559 q 433 533 433 545 q 426 510 433 522 q 409 499 420 499 q 387 504 397 499 q 321 555 377 509 q 255 605 265 600 l 278 440 q 270 418 278 427 q 248 410 262 410 q 217 440 217 411 q 229 522 217 450 q 240 605 240 593 q 175 555 231 600 q 110 504 118 509 q 90 499 101 499 q 70 507 78 499 q 62 532 62 516 q 76 553 62 547 q 156 586 89 559 q 231 620 223 613 q 155 651 223 627 q 77 682 87 675 q 61 705 61 691 q 70 728 62 719 q 89 737 78 737 q 109 732 100 737 q 175 681 118 726 q 240 630 231 636 z "},"+":{"ha":575,"x_min":36,"x_max":541,"o":"m 267 643 l 308 643 l 308 411 l 540 411 l 540 372 l 308 372 l 308 139 l 267 139 l 267 372 l 37 372 l 37 411 l 267 411 l 267 643 z "},",":{"ha":248,"x_min":52,"x_max":203,"o":"m 66 -178 l 53 -160 q 114 -104 87 -141 q 141 -32 141 -68 q 116 -11 141 -11 q 71 9 91 -11 q 52 55 52 28 q 71 101 52 84 q 124 118 91 118 q 180 91 157 118 q 203 16 203 64 q 66 -178 203 -110 z "},"-":{"ha":374,"x_min":66,"x_max":310,"o":"m 68 281 l 68 319 l 308 319 l 308 281 l 68 281 z "},".":{"ha":233,"x_min":52,"x_max":183,"o":"m 71 7 q 53 53 53 25 q 72 100 52 82 q 118 118 93 118 q 164 100 144 118 q 183 55 183 82 q 165 8 183 27 q 118 -11 146 -11 q 71 7 91 -11 z "},"/":{"ha":477,"x_min":34,"x_max":433,"o":"m 433 767 l 93 0 l 36 0 l 377 767 l 433 767 z "},":":{"ha":265,"x_min":66,"x_max":199,"o":"m 87 7 q 69 53 69 25 q 88 100 68 82 q 134 118 109 118 q 178 100 158 118 q 198 55 198 82 q 180 8 198 27 q 134 -11 162 -11 q 87 7 105 -11 m 87 392 q 69 439 69 411 q 88 485 68 467 q 134 504 109 504 q 178 485 158 504 q 198 440 198 467 q 180 393 198 411 q 134 374 162 374 q 87 392 105 374 z "},";":{"ha":294,"x_min":73,"x_max":224,"o":"m 93 392 q 75 439 75 411 q 95 485 75 467 q 141 504 116 504 q 185 485 166 504 q 205 440 205 467 q 186 393 205 411 q 139 374 167 374 q 93 392 110 374 m 87 -178 l 77 -160 q 135 -105 109 -141 q 162 -32 162 -69 q 137 -11 162 -11 q 93 9 112 -11 q 75 55 75 28 q 93 100 75 82 q 145 118 112 118 q 201 90 178 118 q 224 16 224 62 q 87 -178 224 -110 z "},"<":{"ha":532,"x_min":32,"x_max":463,"o":"m 34 381 l 34 402 l 461 634 l 461 591 l 93 392 l 461 194 l 461 151 l 34 381 z "},"=":{"ha":661,"x_min":78,"x_max":584,"o":"m 78 280 l 78 322 l 582 322 l 582 280 l 78 280 m 78 461 l 78 504 l 582 504 l 582 461 l 78 461 z "},">":{"ha":532,"x_min":71,"x_max":500,"o":"m 499 402 l 499 381 l 71 151 l 71 194 l 440 392 l 71 591 l 71 634 l 499 402 z "},"?":{"ha":572,"x_min":36,"x_max":531,"o":"m 302 9 q 292 -1 302 9 q 256 -11 283 -11 q 209 9 228 -11 q 191 55 191 28 q 209 100 191 82 q 256 118 228 118 q 302 100 283 118 q 321 55 321 82 q 302 9 321 28 m 244 182 q 297 404 244 299 q 342 490 321 447 q 397 675 395 593 q 364 831 397 787 q 277 874 331 874 q 182 847 223 874 q 141 767 141 819 q 196 691 141 716 q 174 632 196 653 q 118 611 151 611 q 61 636 85 611 q 37 703 37 661 q 113 845 37 789 q 300 901 189 901 q 471 851 411 901 q 531 684 531 801 q 461 513 531 589 q 399 441 433 479 q 337 369 365 402 q 267 182 267 287 l 244 182 z "},"@":{"ha":965,"x_min":55,"x_max":928,"o":"m 928 509 q 856 290 928 377 q 682 203 783 203 q 548 265 580 203 q 402 204 488 205 q 271 257 317 203 q 224 395 224 312 q 312 616 224 527 q 506 705 399 705 q 588 685 552 705 q 641 632 623 664 l 659 687 l 748 687 l 645 321 q 637 280 637 297 q 698 237 637 237 q 836 319 778 237 q 894 509 894 401 q 789 765 894 670 q 507 860 684 860 q 209 738 331 860 q 87 439 87 616 q 209 142 87 262 q 506 23 331 23 q 647 39 588 23 q 771 91 707 55 l 787 62 q 654 6 718 23 q 506 -11 591 -11 q 186 118 315 -11 q 57 439 57 248 q 187 759 57 630 q 508 889 317 889 q 814 784 700 889 q 928 509 928 680 m 543 308 l 629 595 q 515 671 593 671 q 384 572 438 671 q 329 358 329 474 q 353 273 329 304 q 422 242 376 242 q 543 308 495 242 z "},"A":{"ha":789,"x_min":-30,"x_max":814,"o":"m 205 23 l 205 0 l -30 0 l -30 23 l 77 68 l 395 901 l 411 901 l 712 39 l 814 23 l 814 0 l 491 0 l 491 23 l 580 37 l 486 297 l 196 297 l 107 68 l 205 23 m 347 707 l 205 321 l 479 321 l 347 707 z "},"B":{"ha":810,"x_min":41,"x_max":757,"o":"m 755 237 q 667 58 755 116 q 429 0 579 0 l 43 0 l 43 23 l 142 39 l 142 839 l 43 855 l 43 878 l 377 878 q 626 829 552 878 q 700 673 700 780 q 499 472 700 515 l 499 465 q 755 237 755 431 m 429 445 l 264 445 l 264 27 l 429 27 q 574 81 522 27 q 627 237 627 135 l 627 248 q 575 396 627 347 q 429 445 524 445 m 377 849 l 264 849 l 264 474 l 385 474 q 519 524 472 474 q 566 664 566 573 l 566 671 q 377 849 568 849 z "},"C":{"ha":810,"x_min":57,"x_max":746,"o":"m 718 901 l 741 901 l 741 627 l 718 627 l 650 798 q 455 874 566 874 q 272 783 344 874 q 199 540 199 693 l 199 338 q 268 93 199 183 q 454 4 337 4 q 566 28 511 4 q 661 94 621 52 l 723 271 l 746 271 l 746 -11 l 723 -11 l 645 45 q 463 -23 561 -23 q 166 104 274 -23 q 57 437 57 231 q 168 772 57 643 q 459 901 280 901 q 645 837 559 901 l 718 901 z "},"D":{"ha":931,"x_min":41,"x_max":878,"o":"m 43 878 l 461 878 q 760 756 645 878 q 875 438 876 634 q 760 121 874 242 q 461 0 646 0 l 43 0 l 43 23 l 142 39 l 142 839 l 43 855 l 43 878 m 461 849 l 264 849 l 264 27 l 461 27 q 660 112 584 27 q 735 354 735 198 l 735 524 q 660 765 735 680 q 461 849 584 849 z "},"E":{"ha":783,"x_min":41,"x_max":726,"o":"m 472 614 l 499 614 l 499 267 l 472 267 l 406 429 l 264 429 l 264 27 l 607 27 l 698 267 l 726 267 l 726 0 l 43 0 l 43 23 l 142 39 l 142 839 l 43 855 l 43 878 l 702 878 l 702 627 l 673 627 l 588 849 l 264 849 l 264 456 l 406 456 l 472 614 z "},"F":{"ha":732,"x_min":41,"x_max":703,"o":"m 365 23 l 365 0 l 43 0 l 43 23 l 142 39 l 142 839 l 43 855 l 43 878 l 702 878 l 702 611 l 673 611 l 588 849 l 264 849 l 264 438 l 449 438 l 513 598 l 543 598 l 543 251 l 513 251 l 449 411 l 264 411 l 264 39 l 365 23 z "},"G":{"ha":890,"x_min":57,"x_max":880,"o":"m 723 901 l 746 901 l 746 627 l 723 627 l 652 808 q 460 874 573 874 q 272 785 347 874 q 198 540 198 696 l 198 338 q 268 93 198 182 q 454 4 338 4 q 601 67 548 4 q 653 239 653 130 l 653 363 l 552 379 l 552 402 l 880 402 l 880 379 l 776 363 l 776 239 q 696 53 776 130 q 444 -23 616 -23 q 165 104 272 -23 q 57 438 57 231 q 170 773 57 645 q 465 901 283 901 q 655 842 579 901 l 723 901 z "},"H":{"ha":942,"x_min":41,"x_max":903,"o":"m 901 23 l 901 0 l 579 0 l 579 23 l 680 39 l 680 452 l 264 452 l 264 39 l 365 23 l 365 0 l 43 0 l 43 23 l 142 39 l 142 839 l 43 855 l 43 878 l 365 878 l 365 855 l 264 839 l 264 479 l 680 479 l 680 839 l 579 855 l 579 878 l 901 878 l 901 855 l 801 839 l 801 39 l 901 23 z "},"I":{"ha":404,"x_min":41,"x_max":365,"o":"m 365 23 l 365 0 l 43 0 l 43 23 l 142 39 l 142 839 l 43 855 l 43 878 l 365 878 l 365 855 l 264 839 l 264 39 l 365 23 z "},"J":{"ha":488,"x_min":5,"x_max":463,"o":"m 158 -23 q 51 6 94 -23 q 7 81 7 36 q 28 149 7 126 q 77 171 48 171 q 125 154 107 171 q 148 123 142 137 l 151 107 q 118 58 118 84 q 131 18 118 32 q 167 4 144 4 q 221 51 203 4 q 244 217 239 98 l 244 839 l 142 855 l 142 878 l 461 878 l 461 855 l 360 839 l 360 217 q 326 46 360 105 q 158 -23 285 -23 z "},"K":{"ha":807,"x_min":41,"x_max":840,"o":"m 840 0 l 516 0 l 516 23 l 616 37 l 329 472 l 264 406 l 264 39 l 365 23 l 365 0 l 43 0 l 43 23 l 142 39 l 142 839 l 43 855 l 43 878 l 365 878 l 365 855 l 264 839 l 264 443 l 620 807 l 500 855 l 500 878 l 753 878 l 753 855 l 664 807 l 415 557 l 766 39 l 840 23 l 840 0 z "},"L":{"ha":735,"x_min":41,"x_max":710,"o":"m 43 878 l 365 878 l 365 855 l 264 839 l 264 27 l 591 27 l 680 267 l 710 267 l 710 0 l 43 0 l 43 23 l 142 39 l 142 839 l 43 855 l 43 878 z "},"M":{"ha":1104,"x_min":41,"x_max":1067,"o":"m 144 68 l 144 839 l 43 855 l 43 878 l 287 878 l 561 173 l 842 878 l 1065 878 l 1065 855 l 963 839 l 963 39 l 1065 23 l 1065 0 l 741 0 l 741 23 l 842 39 l 842 807 l 518 -11 l 499 -11 l 171 839 l 171 68 l 278 23 l 278 0 l 43 0 l 43 23 l 144 68 z "},"N":{"ha":887,"x_min":45,"x_max":855,"o":"m 148 68 l 148 810 l 45 855 l 45 878 l 249 878 l 721 215 l 721 810 l 620 855 l 620 878 l 855 878 l 855 855 l 750 810 l 750 0 l 721 0 l 175 769 l 175 68 l 280 23 l 280 0 l 45 0 l 45 23 l 148 68 z "},"O":{"ha":937,"x_min":55,"x_max":885,"o":"m 57 441 q 57 543 57 441 q 174 772 57 645 q 470 901 290 899 q 767 772 650 901 q 883 440 883 643 q 767 107 883 237 q 471 -23 653 -23 q 173 107 288 -23 q 57 441 57 237 m 746 354 l 746 524 q 670 778 746 682 q 470 874 593 874 q 269 778 347 874 q 191 524 191 682 l 191 354 q 269 98 191 192 q 470 4 347 4 q 670 98 593 4 q 746 354 746 192 z "},"P":{"ha":741,"x_min":41,"x_max":709,"o":"m 386 340 l 264 340 l 264 39 l 365 23 l 365 0 l 43 0 l 43 23 l 142 39 l 142 839 l 43 855 l 43 878 l 386 878 q 707 609 707 878 q 386 340 707 340 m 372 849 l 264 849 l 264 367 l 372 367 q 573 586 573 367 l 573 630 q 372 849 573 849 z "},"Q":{"ha":937,"x_min":55,"x_max":885,"o":"m 673 -228 l 673 -253 l 636 -253 q 404 -64 404 -253 l 404 -16 q 151 131 246 5 q 57 450 57 256 q 173 773 57 643 q 470 901 290 899 q 767 772 650 901 q 883 450 883 643 q 788 133 883 258 q 540 -16 693 7 l 540 -91 q 673 -228 540 -228 m 194 354 q 271 97 194 191 q 469 4 347 4 q 669 97 591 4 q 746 354 746 191 l 746 524 q 669 781 746 687 q 469 874 591 874 q 271 781 347 874 q 194 524 194 687 l 194 354 z "},"R":{"ha":796,"x_min":41,"x_max":819,"o":"m 801 77 l 819 57 q 689 -11 760 -11 q 587 19 618 -11 q 547 119 556 48 l 525 267 q 349 426 502 426 l 264 426 l 264 39 l 365 23 l 365 0 l 43 0 l 43 23 l 142 39 l 142 839 l 43 855 l 43 878 l 349 878 q 607 822 527 878 q 687 652 687 766 q 459 433 687 463 l 459 426 q 661 239 632 402 l 673 144 q 694 63 682 89 q 735 37 705 37 q 801 77 764 37 m 349 849 l 264 849 l 264 452 l 386 452 q 511 501 467 452 q 556 646 556 550 l 556 668 q 349 849 556 849 z "},"S":{"ha":712,"x_min":69,"x_max":666,"o":"m 589 901 l 613 901 l 613 675 l 589 675 l 511 835 q 333 874 429 874 q 182 826 237 874 q 126 709 126 778 q 166 605 126 639 q 280 552 205 572 l 477 499 q 620 417 573 475 q 666 238 666 358 q 590 47 666 118 q 400 -23 515 -23 q 187 37 285 -23 l 94 -11 l 71 -11 l 71 271 l 94 271 l 189 68 q 386 4 280 4 q 556 53 493 4 q 620 198 620 103 q 580 304 620 265 q 447 365 540 342 l 265 411 q 122 498 171 436 q 73 641 73 559 q 142 830 73 759 q 321 901 210 901 q 509 865 431 901 l 589 901 z "},"T":{"ha":764,"x_min":27,"x_max":741,"o":"m 707 634 l 627 849 l 443 849 l 443 39 l 545 23 l 545 0 l 223 0 l 223 23 l 322 39 l 322 849 l 142 849 l 57 634 l 27 634 l 27 878 l 741 878 l 741 634 l 707 634 z "},"U":{"ha":883,"x_min":27,"x_max":858,"o":"m 753 240 q 679 43 753 109 q 442 -23 605 -23 q 204 50 278 -23 q 130 240 130 123 l 130 839 l 28 855 l 28 878 l 353 878 l 353 855 l 251 839 l 251 240 q 493 16 251 18 q 726 240 726 16 l 726 810 l 625 855 l 625 878 l 858 878 l 858 855 l 753 810 l 753 240 z "},"V":{"ha":759,"x_min":-32,"x_max":776,"o":"m 372 -23 l 57 839 l -30 855 l -30 878 l 292 878 l 292 855 l 187 840 l 429 183 l 666 805 l 540 855 l 540 878 l 775 878 l 775 855 l 696 807 l 381 -23 l 372 -23 z "},"W":{"ha":1186,"x_min":-23,"x_max":1214,"o":"m 978 855 l 978 878 l 1214 878 l 1214 855 l 1129 807 l 816 -23 l 807 -23 l 593 570 l 370 -23 l 361 -23 l 52 839 l -23 855 l -23 878 l 283 878 l 283 855 l 183 839 l 418 189 l 579 607 l 497 839 l 397 855 l 397 878 l 721 878 l 721 855 l 627 840 l 865 191 l 1102 805 l 978 855 z "},"X":{"ha":833,"x_min":-9,"x_max":865,"o":"m 265 23 l 265 0 l 4 0 l 4 23 l 110 84 l 361 420 l 84 839 l -9 855 l -9 878 l 324 878 l 324 855 l 237 840 l 450 518 l 661 801 l 532 855 l 532 878 l 794 878 l 794 855 l 689 796 l 465 497 l 769 37 l 864 23 l 864 0 l 531 0 l 531 23 l 616 37 l 377 397 l 135 75 l 265 23 z "},"Y":{"ha":741,"x_min":-34,"x_max":751,"o":"m 438 410 l 438 39 l 540 23 l 540 0 l 217 0 l 217 23 l 319 39 l 319 372 l 52 839 l -34 855 l -34 878 l 297 878 l 297 855 l 194 839 l 426 440 l 636 801 l 506 855 l 506 878 l 751 878 l 751 855 l 666 801 l 438 410 z "},"Z":{"ha":746,"x_min":28,"x_max":703,"o":"m 87 878 l 691 878 l 691 849 l 178 27 l 561 27 l 673 251 l 702 251 l 675 0 l 30 0 l 30 27 l 543 849 l 203 849 l 91 641 l 62 641 l 87 878 z "},"[":{"ha":338,"x_min":93,"x_max":329,"o":"m 329 -203 l 94 -203 l 94 985 l 329 985 l 329 951 l 205 951 l 205 -171 l 329 -171 l 329 -203 z "},"\\":{"ha":477,"x_min":46,"x_max":443,"o":"m 386 0 l 46 767 l 103 767 l 443 0 l 386 0 z "},"]":{"ha":338,"x_min":12,"x_max":249,"o":"m 12 -203 l 248 -203 l 248 985 l 12 985 l 12 951 l 137 951 l 137 -171 l 12 -171 l 12 -203 z "},"^":{"ha":629,"x_min":66,"x_max":563,"o":"m 292 741 l 337 741 l 561 292 l 506 292 l 313 671 l 123 292 l 68 292 l 292 741 z "},"_":{"ha":502,"x_min":0,"x_max":504,"o":"m 504 -85 l 504 -125 l 0 -125 l 0 -85 l 504 -85 z "},"`":{"ha":240,"x_min":-23,"x_max":158,"o":"m -4 753 q -22 791 -21 769 q -7 829 -23 814 q 36 844 9 844 q 77 814 62 844 l 157 639 l 141 627 l -4 753 z "},"a":{"ha":611,"x_min":39,"x_max":618,"o":"m 401 109 q 319 20 372 52 q 197 -11 265 -11 q 85 26 128 -11 q 41 126 41 62 q 68 228 41 191 q 361 326 142 326 l 401 326 l 401 433 q 290 554 401 554 q 209 531 240 554 q 178 477 178 507 q 207 438 178 447 q 186 389 207 410 q 137 369 166 369 q 90 389 110 369 q 69 440 69 410 q 134 538 69 497 q 290 579 198 579 q 511 410 513 579 l 511 73 q 552 23 511 23 q 593 71 593 23 l 616 71 q 591 12 616 34 q 518 -11 566 -11 q 436 19 470 -11 q 401 109 402 48 m 401 187 l 401 299 l 361 299 q 218 258 276 299 q 160 135 160 217 q 184 66 160 91 q 256 41 208 41 q 349 80 304 41 q 401 187 394 119 z "},"b":{"ha":702,"x_min":21,"x_max":657,"o":"m 23 0 l 23 23 l 98 32 l 98 846 l 23 855 l 23 878 l 208 878 l 208 452 q 390 579 267 579 q 584 497 513 579 q 655 283 655 415 q 584 70 655 151 q 390 -11 513 -11 q 208 114 267 -11 l 208 0 l 23 0 m 536 230 l 536 338 q 383 552 536 552 q 260 492 310 552 q 208 345 210 433 l 208 230 q 258 79 208 142 q 383 16 308 16 q 536 230 536 16 z "},"c":{"ha":595,"x_min":45,"x_max":557,"o":"m 418 406 q 447 464 447 426 q 415 528 447 502 q 329 554 383 554 q 208 498 251 554 q 166 338 166 442 l 166 230 q 207 72 166 132 q 326 12 248 12 q 459 55 404 12 q 527 167 515 98 l 552 167 q 477 37 538 85 q 329 -11 417 -11 q 126 70 208 -11 q 45 286 45 151 q 129 499 45 420 q 320 579 214 579 q 491 531 426 579 q 556 411 556 483 q 537 355 556 374 q 488 337 518 337 q 438 356 458 337 q 418 406 418 376 z "},"d":{"ha":702,"x_min":46,"x_max":682,"o":"m 493 0 l 493 114 q 313 -11 434 -11 q 118 70 191 -11 q 46 285 46 151 q 118 499 46 418 q 313 579 191 579 q 493 452 434 579 l 493 846 l 417 855 l 417 878 l 604 878 l 604 32 l 680 23 l 680 0 l 493 0 m 167 338 l 167 230 q 319 16 167 16 q 442 77 392 16 q 493 221 491 137 l 493 345 q 442 491 491 431 q 319 552 392 552 q 167 338 167 552 z "},"e":{"ha":609,"x_min":45,"x_max":570,"o":"m 468 57 q 540 167 525 100 l 566 167 q 488 37 550 85 q 335 -11 426 -11 q 126 71 210 -11 q 45 282 45 151 q 125 496 45 413 q 320 579 205 579 q 501 510 434 579 q 570 338 568 442 l 166 338 l 166 230 q 208 73 166 132 q 333 12 255 12 q 468 57 411 12 m 326 554 q 212 503 253 554 q 167 365 171 452 l 449 365 q 326 554 449 554 z "},"f":{"ha":374,"x_min":27,"x_max":443,"o":"m 28 0 l 28 23 l 105 32 l 105 536 l 28 547 l 28 568 l 105 568 l 105 661 q 294 889 105 889 q 401 857 358 889 q 443 773 443 826 q 425 719 443 741 q 377 698 406 698 q 328 719 349 698 q 306 767 306 741 q 345 819 345 778 q 330 851 345 837 q 294 865 315 865 q 233 825 251 865 q 215 694 215 785 l 215 568 l 358 568 l 358 547 l 215 536 l 215 32 l 345 23 l 345 0 l 28 0 z "},"g":{"ha":589,"x_min":16,"x_max":623,"o":"m 178 185 q 105 128 105 180 q 134 90 105 103 q 205 77 162 77 l 385 77 q 517 42 472 77 q 563 -73 563 7 q 491 -249 563 -178 q 285 -321 418 -321 q 84 -279 151 -321 q 16 -167 16 -237 q 45 -96 16 -126 q 123 -66 73 -66 q 164 -71 132 -66 q 130 -161 130 -107 q 168 -257 130 -215 q 303 -299 207 -299 q 466 -244 399 -299 q 532 -119 532 -189 q 507 -51 532 -71 q 418 -30 483 -30 l 205 -30 q 50 78 50 -30 q 77 159 50 128 q 150 201 103 191 q 64 363 64 258 q 127 524 64 468 q 284 579 191 579 q 438 531 377 579 q 501 549 481 532 q 522 588 522 566 q 511 620 522 609 q 486 630 500 630 q 506 678 486 659 q 554 696 525 696 q 602 678 582 696 q 621 621 621 661 q 583 549 621 582 q 459 511 545 516 q 512 366 513 456 q 448 220 511 276 q 287 164 385 164 q 178 185 224 164 m 408 345 l 408 399 q 288 559 408 559 q 167 399 167 559 l 167 345 q 197 226 167 269 q 287 183 226 183 q 377 226 347 183 q 408 345 408 269 z "},"h":{"ha":687,"x_min":21,"x_max":671,"o":"m 483 418 q 389 540 483 540 q 208 411 296 540 l 208 32 l 274 23 l 274 0 l 23 0 l 23 23 l 98 32 l 98 846 l 23 855 l 23 878 l 208 878 l 208 450 q 422 579 297 579 q 547 539 500 579 q 593 422 593 499 l 593 32 l 670 23 l 670 0 l 417 0 l 417 23 l 483 32 l 483 418 z "},"i":{"ha":313,"x_min":28,"x_max":294,"o":"m 71 770 q 71 786 71 770 q 93 821 71 801 q 145 840 114 840 q 197 821 176 840 q 217 770 217 801 q 197 718 217 739 q 146 696 176 696 q 93 718 116 696 q 71 770 71 739 m 30 547 l 30 566 l 217 566 l 217 32 l 292 23 l 292 0 l 30 0 l 30 23 l 107 32 l 107 534 l 30 547 z "},"j":{"ha":290,"x_min":-34,"x_max":212,"o":"m 96 -214 q 3 -183 39 -214 q -34 -98 -34 -151 q -15 -44 -34 -64 q 32 -23 4 -23 q 78 -37 61 -23 q 98 -68 96 -52 l 103 -82 q 68 -139 68 -103 q 112 -183 68 -183 q 158 -160 141 -183 q 176 -93 176 -137 q 137 20 176 -48 q 98 146 98 87 l 98 536 l 16 547 l 16 568 l 207 568 l 207 -62 q 96 -214 208 -214 m 64 770 q 64 786 64 770 q 85 821 64 801 q 138 840 107 840 q 190 821 169 840 q 210 770 210 801 q 190 718 210 739 q 139 696 169 696 q 86 718 109 696 q 64 770 64 739 z "},"k":{"ha":620,"x_min":21,"x_max":636,"o":"m 23 0 l 23 23 l 98 32 l 98 846 l 23 855 l 23 878 l 208 878 l 208 315 l 459 520 l 365 547 l 365 568 l 572 568 l 572 547 l 500 520 l 319 372 l 575 32 l 634 23 l 634 0 l 377 0 l 377 23 l 443 32 l 237 304 l 208 281 l 208 32 l 274 23 l 274 0 l 23 0 z "},"l":{"ha":308,"x_min":20,"x_max":288,"o":"m 20 855 l 20 878 l 212 878 l 212 32 l 288 23 l 288 0 l 20 0 l 20 23 l 103 32 l 103 846 l 20 855 z "},"m":{"ha":1035,"x_min":27,"x_max":1019,"o":"m 401 0 l 401 23 l 467 32 l 467 418 q 379 540 467 540 q 215 429 292 540 l 215 32 l 281 23 l 281 0 l 28 0 l 28 23 l 105 32 l 105 536 l 28 547 l 28 568 l 215 568 l 215 467 q 411 579 299 579 q 575 461 552 579 q 775 579 661 579 q 897 540 853 579 q 940 422 940 500 l 940 32 l 1017 23 l 1017 0 l 766 0 l 766 23 l 830 32 l 830 418 q 743 540 830 540 q 579 429 655 540 l 579 32 l 645 23 l 645 0 l 401 0 z "},"n":{"ha":693,"x_min":27,"x_max":677,"o":"m 490 418 q 396 540 490 540 q 215 411 303 540 l 215 32 l 281 23 l 281 0 l 28 0 l 28 23 l 105 32 l 105 536 l 28 547 l 28 568 l 215 568 l 215 450 q 429 579 304 579 q 554 539 507 579 q 600 422 600 499 l 600 32 l 675 23 l 675 0 l 424 0 l 424 23 l 490 32 l 490 418 z "},"o":{"ha":657,"x_min":45,"x_max":614,"o":"m 491 230 l 491 338 q 451 496 491 438 q 329 554 411 554 q 207 496 248 554 q 166 338 166 438 l 166 230 q 207 72 166 132 q 329 12 248 12 q 451 72 411 12 q 491 230 491 132 m 126 71 q 45 283 45 153 q 125 496 45 413 q 329 579 205 579 q 532 496 452 579 q 613 285 613 413 q 532 73 613 157 q 331 -11 452 -11 q 126 71 210 -11 z "},"p":{"ha":702,"x_min":21,"x_max":657,"o":"m 208 568 l 208 452 q 389 579 265 579 q 584 498 513 579 q 655 283 655 417 q 584 69 655 150 q 390 -11 513 -11 q 208 114 267 -11 l 208 -278 l 312 -288 l 312 -312 l 23 -312 l 23 -288 l 98 -278 l 98 536 l 23 547 l 23 568 l 208 568 m 536 228 l 536 338 q 383 552 536 550 q 260 491 310 552 q 208 345 210 431 l 208 228 q 258 78 208 141 q 383 16 308 16 q 536 228 536 16 z "},"q":{"ha":702,"x_min":46,"x_max":682,"o":"m 493 -278 l 493 114 q 313 -11 434 -11 q 118 69 191 -11 q 46 283 46 150 q 118 498 46 417 q 313 579 191 579 q 493 452 436 579 l 493 568 l 680 568 l 680 547 l 604 536 l 604 -278 l 680 -288 l 680 -312 l 363 -312 l 363 -288 l 493 -278 m 167 338 l 167 228 q 319 16 167 16 q 442 77 392 16 q 493 219 491 137 l 493 345 q 442 491 491 431 q 319 552 392 552 q 167 338 167 550 z "},"r":{"ha":481,"x_min":27,"x_max":477,"o":"m 28 0 l 28 23 l 105 32 l 105 536 l 28 547 l 28 568 l 215 568 l 215 484 q 372 579 285 579 q 445 557 413 579 q 477 501 477 536 q 458 448 477 467 q 405 429 438 429 q 353 456 372 429 q 364 490 365 472 q 351 520 363 507 q 317 532 338 532 q 215 443 274 532 l 215 32 l 303 23 l 303 0 l 28 0 z "},"s":{"ha":516,"x_min":45,"x_max":472,"o":"m 157 98 q 274 11 157 11 q 379 41 335 11 q 424 114 424 71 q 394 177 424 157 q 294 221 363 198 l 151 265 q 53 411 53 294 q 110 531 53 483 q 258 579 167 579 q 401 548 349 579 q 452 465 452 516 q 434 418 452 438 q 392 399 417 399 q 352 411 367 399 q 337 445 337 424 q 360 488 358 461 q 260 557 360 557 q 147 529 189 557 q 105 463 105 500 q 120 410 105 426 q 178 379 135 394 l 353 326 q 442 267 413 306 q 472 161 472 228 q 421 42 472 94 q 267 -11 370 -11 q 45 110 45 -11 q 64 166 45 144 q 110 189 84 189 q 176 142 162 189 q 157 98 157 121 z "},"t":{"ha":377,"x_min":18,"x_max":376,"o":"m 349 568 l 349 547 l 207 536 l 207 142 q 290 27 207 25 q 360 50 328 27 l 374 32 q 256 -11 324 -11 q 98 141 98 -11 l 98 536 l 18 547 l 18 568 l 98 568 l 98 661 l 207 687 l 207 568 l 349 568 z "},"u":{"ha":686,"x_min":16,"x_max":666,"o":"m 205 568 l 205 148 q 297 28 205 28 q 479 144 392 28 l 479 536 l 401 547 l 401 568 l 588 568 l 588 32 l 666 23 l 666 0 l 479 0 l 479 105 q 265 -11 392 -11 q 140 28 185 -11 q 94 146 94 68 l 94 536 l 16 547 l 16 568 l 205 568 z "},"v":{"ha":582,"x_min":-14,"x_max":595,"o":"m 322 -23 l 292 -23 l 57 536 l -14 547 l -14 568 l 258 568 l 258 547 l 180 532 l 345 119 l 493 518 l 397 547 l 397 566 l 593 566 l 593 547 l 525 520 l 322 -23 z "},"w":{"ha":901,"x_min":-14,"x_max":915,"o":"m 645 -23 l 613 -23 l 459 349 l 322 -23 l 292 -23 l 57 536 l -14 547 l -14 568 l 231 568 l 231 547 l 180 532 l 345 119 l 443 386 l 379 536 l 322 547 l 322 568 l 580 568 l 580 547 l 500 532 l 666 119 l 816 516 l 723 547 l 723 566 l 915 566 l 915 547 l 846 520 l 645 -23 z "},"x":{"ha":653,"x_min":0,"x_max":659,"o":"m 14 0 l 14 23 l 87 50 l 272 269 l 68 536 l 2 547 l 2 568 l 269 568 l 269 547 l 201 534 l 351 342 l 506 520 l 418 547 l 418 566 l 620 566 l 620 547 l 541 516 l 367 319 l 589 32 l 659 23 l 659 0 l 392 0 l 392 23 l 456 32 l 292 244 l 123 48 l 210 23 l 210 0 l 14 0 z "},"y":{"ha":588,"x_min":-14,"x_max":600,"o":"m 600 566 l 600 547 l 525 518 l 278 -198 q 223 -291 256 -262 q 132 -321 191 -321 q 38 -292 73 -321 q 4 -223 4 -264 q 23 -162 4 -182 q 79 -142 43 -142 q 134 -178 116 -142 q 118 -223 118 -199 q 132 -262 118 -248 q 167 -276 146 -276 q 248 -198 219 -276 l 313 -7 l 59 534 l -14 547 l -14 566 l 258 566 l 258 547 l 182 532 l 365 141 l 497 518 l 401 547 l 401 566 l 600 566 z "},"z":{"ha":563,"x_min":39,"x_max":522,"o":"m 82 404 l 48 404 l 61 568 l 509 568 l 509 541 l 169 27 l 411 27 l 484 178 l 520 178 l 507 0 l 41 0 l 41 27 l 381 541 l 148 541 l 82 404 z "},"{":{"ha":342,"x_min":12,"x_max":319,"o":"m 226 853 l 248 582 q 206 456 248 506 q 87 392 164 406 q 206 326 164 376 q 248 199 248 276 l 226 -69 q 247 -164 226 -137 q 319 -191 267 -191 l 319 -212 q 170 -175 221 -212 q 119 -50 119 -137 q 131 84 119 -14 q 142 215 142 182 q 12 381 142 383 l 12 401 q 142 566 142 401 q 131 698 142 600 q 119 833 119 796 q 170 958 119 921 q 319 995 221 995 l 319 974 q 247 947 267 974 q 226 853 226 921 z "},"|":{"ha":230,"x_min":96,"x_max":135,"o":"m 135 833 l 135 -264 l 98 -264 l 98 833 l 135 833 z "},"}":{"ha":342,"x_min":25,"x_max":331,"o":"m 118 853 l 96 582 q 138 456 96 506 q 256 392 180 406 q 138 326 180 376 q 96 199 96 276 l 118 -69 q 97 -164 118 -137 q 25 -191 77 -191 l 25 -212 q 174 -175 123 -212 q 224 -50 224 -137 q 213 84 224 -14 q 201 215 201 182 q 331 381 201 383 l 331 401 q 201 566 201 401 q 213 698 201 600 q 224 833 224 796 q 174 958 224 921 q 25 995 123 995 l 25 974 q 97 947 77 974 q 118 853 118 921 z "},"~":{"ha":582,"x_min":52,"x_max":532,"o":"m 491 344 l 532 331 q 515 288 529 319 q 486 240 500 258 q 449 207 472 223 q 401 192 426 192 q 351 205 376 192 q 313 230 326 217 q 280 264 301 242 q 248 297 258 287 q 185 328 214 328 q 134 301 157 328 q 103 248 112 274 l 93 221 q 52 231 52 233 q 69 276 55 248 q 97 322 84 304 q 134 355 110 340 q 183 370 157 370 q 234 358 210 370 q 272 333 258 345 q 306 297 287 321 q 399 235 361 235 q 486 324 452 235 l 491 344 z "}," ":{"ha":260,"x_min":0,"x_max":0,"o":""},"¡":{"ha":248,"x_min":61,"x_max":192,"o":"m 172 559 q 162 569 172 559 q 126 579 153 579 q 80 559 98 579 q 62 513 62 540 q 80 468 62 486 q 126 450 98 450 q 172 468 153 450 q 191 513 191 486 q 172 559 191 540 m 139 386 l 112 386 q 88 11 110 230 q 66 -245 66 -208 q 82 -301 66 -281 q 126 -321 98 -321 q 170 -301 153 -321 q 187 -244 187 -281 q 165 12 187 -207 q 139 386 142 230 z "},"¢":{"ha":598,"x_min":48,"x_max":559,"o":"m 342 726 l 342 579 q 497 528 434 575 q 559 411 559 481 q 540 355 559 374 q 491 337 520 337 q 442 356 461 337 q 422 406 422 376 q 452 463 452 426 q 422 526 452 500 q 342 554 392 552 l 342 12 q 466 58 413 16 q 532 167 518 100 l 557 167 q 483 39 540 87 q 342 -11 426 -9 l 342 -157 l 301 -157 l 301 -9 q 120 82 191 2 q 50 287 50 162 q 124 489 50 411 q 301 577 198 566 l 301 726 l 342 726 m 171 230 q 204 85 171 142 q 301 16 237 27 l 301 552 q 205 485 239 540 q 171 338 171 431 l 171 230 z "},"£":{"ha":691,"x_min":68,"x_max":625,"o":"m 69 449 l 69 491 l 187 491 q 153 539 178 504 q 116 591 128 573 q 82 707 82 646 q 152 844 82 787 q 344 901 223 901 q 545 843 465 901 q 625 696 625 785 q 599 626 625 652 q 540 600 573 600 q 483 621 506 600 q 459 680 459 641 q 516 762 516 709 q 475 845 516 816 q 369 874 433 874 q 264 834 306 874 q 223 720 223 794 q 260 554 223 646 q 285 491 278 509 l 465 491 l 465 449 l 296 449 q 301 394 301 418 q 297 353 301 369 l 465 353 l 465 312 l 288 312 q 247 228 276 269 q 202 172 217 187 q 148 123 187 157 l 525 123 l 593 299 l 623 299 l 623 0 l 71 0 l 71 84 q 106 118 75 87 q 148 160 137 150 q 226 312 214 242 l 69 312 l 69 353 l 231 353 l 231 361 q 210 449 231 406 l 69 449 z "},"¤":{"ha":591,"x_min":61,"x_max":532,"o":"m 62 189 l 144 271 q 103 393 103 324 q 146 516 103 461 l 64 597 l 93 627 l 176 547 q 296 587 228 588 q 417 545 363 586 l 500 629 l 532 598 l 447 515 q 491 394 491 463 q 447 271 491 326 l 532 191 l 500 160 l 418 242 q 296 199 365 199 q 175 242 228 199 l 93 158 l 62 189 m 296 242 q 328 242 296 242 q 405 287 360 242 q 450 394 450 331 q 405 501 450 456 q 296 547 360 547 q 189 501 233 547 q 144 394 144 456 q 189 287 144 331 q 296 242 233 242 z "},"¥":{"ha":849,"x_min":32,"x_max":817,"o":"m 207 377 l 207 418 l 358 418 l 119 839 l 32 855 l 32 878 l 363 878 l 363 855 l 262 839 l 491 440 l 703 801 l 572 855 l 572 878 l 817 878 l 817 855 l 734 801 l 511 418 l 678 418 l 678 377 l 506 377 l 506 301 l 678 301 l 678 260 l 506 260 l 506 39 l 605 23 l 605 0 l 285 0 l 285 23 l 386 39 l 386 260 l 207 260 l 207 301 l 386 301 l 386 372 l 383 377 l 207 377 z "},"¦":{"ha":240,"x_min":98,"x_max":142,"o":"m 142 833 l 142 395 l 98 395 l 98 833 l 142 833 m 142 176 l 142 -264 l 98 -264 l 98 176 l 142 176 z "},"§":{"ha":572,"x_min":57,"x_max":520,"o":"m 75 705 q 274 889 75 889 q 428 854 370 889 q 486 762 486 819 q 467 709 486 730 q 419 687 447 687 q 375 701 392 687 q 358 741 358 714 q 385 789 385 757 q 352 844 385 821 q 263 867 319 867 q 163 839 207 867 q 119 759 119 810 q 135 698 119 725 q 166 659 151 671 q 212 627 182 646 l 399 538 q 520 377 520 479 q 424 178 520 260 q 499 29 499 118 q 445 -105 499 -59 q 295 -151 392 -151 q 138 -117 198 -151 q 78 -25 78 -82 q 98 28 78 7 q 146 50 118 50 q 191 36 175 50 q 207 -4 207 21 q 181 -53 180 -23 q 215 -106 182 -84 q 305 -128 249 -128 q 407 -100 361 -128 q 452 -21 452 -71 q 435 40 452 12 q 402 80 418 68 q 354 110 386 93 l 167 201 q 57 360 57 258 q 82 469 57 426 q 151 552 107 513 q 75 705 75 613 m 397 198 q 402 196 399 198 q 406 192 404 194 q 477 331 477 256 q 446 395 477 369 q 345 456 415 422 l 171 540 q 117 475 134 506 q 100 409 100 445 q 128 344 100 372 q 221 281 157 315 l 397 198 z "},"¨":{"ha":427,"x_min":46,"x_max":383,"o":"m 66 693 q 48 740 48 712 q 67 786 48 767 q 113 805 85 805 q 159 786 141 805 q 178 740 178 767 q 159 694 178 712 q 113 675 141 675 q 66 693 85 675 m 271 693 q 251 740 251 712 q 270 786 251 767 q 316 805 288 805 q 362 786 344 805 q 381 740 381 767 q 362 694 381 712 q 316 675 344 675 q 271 693 288 675 z "},"©":{"ha":1006,"x_min":53,"x_max":954,"o":"m 186 121 q 155 151 186 121 q 89 264 125 182 q 53 439 53 345 q 89 613 53 532 q 186 756 125 694 q 329 853 248 817 q 504 889 411 889 q 678 852 597 889 q 821 754 760 816 q 918 612 881 693 q 954 438 954 531 q 918 264 954 345 q 821 121 881 182 q 678 25 760 61 q 504 -11 597 -11 q 329 25 411 -11 q 186 121 248 61 m 215 726 q 187 698 215 726 q 127 597 158 671 q 96 437 96 522 q 127 279 96 353 q 214 148 158 205 q 504 30 333 30 q 792 150 673 30 q 910 438 910 269 q 879 597 910 522 q 792 726 848 671 q 663 813 737 780 q 504 846 589 846 q 345 813 418 846 q 215 726 271 780 m 670 726 l 691 726 l 691 552 l 670 552 l 627 646 q 506 694 577 694 q 351 502 351 694 l 351 374 q 506 183 351 183 q 576 200 540 183 q 636 242 613 217 l 675 338 l 696 338 l 696 157 l 675 157 l 627 194 q 506 151 573 151 q 316 231 388 151 q 244 439 244 312 q 316 646 244 566 q 506 726 388 726 q 621 687 566 726 l 670 726 z "},"ª":{"ha":547,"x_min":45,"x_max":522,"o":"m 256 853 q 169 801 169 853 q 198 766 169 775 q 177 723 198 741 q 132 705 157 705 q 90 723 107 705 q 73 766 73 741 q 126 852 73 821 q 251 883 178 883 q 436 746 436 883 l 436 475 q 465 445 436 447 q 483 453 475 445 q 491 474 491 461 l 520 474 q 497 424 520 442 q 438 406 474 406 q 376 425 402 406 q 340 479 349 443 q 182 406 290 406 q 82 436 119 406 q 45 518 45 467 q 126 648 45 611 q 310 686 207 686 l 337 686 l 337 764 q 317 833 337 814 q 256 853 297 853 m 337 566 l 337 653 l 310 653 q 197 620 242 653 q 151 525 151 586 q 219 449 151 449 q 296 481 262 449 q 337 566 331 513 z "},"«":{"ha":399,"x_min":48,"x_max":344,"o":"m 212 304 l 333 433 l 344 424 l 296 297 l 344 167 l 333 158 l 212 288 l 212 304 m 239 516 l 249 506 l 146 297 l 249 87 l 239 77 l 50 287 l 50 306 l 239 516 z "},"¬":{"ha":613,"x_min":78,"x_max":534,"o":"m 78 411 l 532 411 l 532 135 l 493 135 l 493 372 l 78 372 l 78 411 z "},"­":{"ha":420,"x_min":66,"x_max":354,"o":"m 353 372 l 68 372 l 68 411 l 353 411 l 353 372 z "},"®":{"ha":1006,"x_min":53,"x_max":954,"o":"m 186 121 q 155 151 186 121 q 89 264 125 182 q 53 439 53 345 q 89 613 53 532 q 186 756 125 694 q 329 853 248 817 q 504 889 411 889 q 678 852 597 889 q 821 754 760 816 q 918 612 881 693 q 954 438 954 531 q 918 264 954 345 q 821 121 881 182 q 678 25 760 61 q 504 -11 597 -11 q 329 25 411 -11 q 186 121 248 61 m 215 726 q 187 698 215 726 q 127 597 158 671 q 96 437 96 522 q 127 279 96 353 q 214 148 158 205 q 504 30 333 30 q 792 150 673 30 q 910 438 910 269 q 879 597 910 522 q 792 726 848 671 q 663 813 737 780 q 504 846 589 846 q 345 813 418 846 q 215 726 271 780 m 762 212 l 780 191 q 686 150 741 150 q 591 231 604 150 l 577 326 q 546 397 570 372 q 467 422 522 422 l 424 422 l 424 191 l 488 182 l 488 157 l 267 157 l 267 182 l 333 191 l 333 680 l 267 691 l 267 718 l 507 718 q 676 682 625 718 q 726 573 726 646 q 550 433 726 452 l 550 429 q 680 304 662 413 l 691 244 q 699 203 693 215 q 723 191 705 191 q 762 212 741 191 m 491 689 l 424 689 l 424 452 l 491 452 q 627 570 627 452 l 627 584 q 491 689 627 689 z "},"¯":{"ha":502,"x_min":0,"x_max":504,"o":"m 504 767 l 504 730 l 0 730 l 0 767 l 504 767 z "},"°":{"ha":401,"x_min":39,"x_max":363,"o":"m 87 554 q 40 669 39 602 q 89 782 41 735 q 203 828 137 828 q 315 781 269 828 q 361 669 361 734 q 317 556 361 604 q 203 507 271 507 q 87 554 135 506 m 286 585 q 303 602 286 585 q 321 667 321 620 q 284 751 321 714 q 201 787 248 787 q 119 751 155 787 q 84 668 84 716 q 118 585 84 620 q 203 550 153 550 q 286 585 251 550 z "},"±":{"ha":664,"x_min":80,"x_max":586,"o":"m 82 123 l 82 164 l 586 164 l 586 123 l 82 123 m 312 589 l 353 589 l 353 411 l 586 411 l 586 372 l 353 372 l 353 194 l 312 194 l 312 372 l 82 372 l 82 411 l 312 411 l 312 589 z "},"²":{"ha":422,"x_min":55,"x_max":358,"o":"m 358 573 l 358 417 l 57 417 l 57 461 l 183 586 q 272 767 272 673 q 252 834 272 808 q 200 860 231 860 q 150 847 169 860 q 130 807 130 833 q 164 762 130 780 q 150 727 164 741 q 117 714 137 714 q 80 730 96 714 q 64 771 64 746 q 103 854 64 824 q 210 883 142 883 q 318 849 278 883 q 358 765 358 816 q 329 674 358 714 q 251 593 301 634 l 118 486 l 301 486 l 331 573 l 358 573 z "},"³":{"ha":402,"x_min":45,"x_max":363,"o":"m 144 661 l 144 684 q 227 711 203 687 q 251 785 251 735 q 182 860 251 860 q 126 819 126 860 q 157 780 126 792 q 144 746 157 759 q 112 734 132 734 q 79 749 93 734 q 66 789 66 764 q 101 860 66 837 q 198 883 137 883 q 295 857 258 883 q 331 780 331 832 q 201 673 331 687 l 201 671 q 361 540 363 661 q 313 446 361 486 q 195 406 265 406 q 85 436 125 406 q 45 515 45 467 q 59 555 45 540 q 93 570 73 570 q 126 558 112 570 q 139 524 139 547 q 107 479 107 506 q 180 433 107 433 q 243 459 217 433 q 269 543 269 486 q 239 629 269 600 q 144 661 210 657 z "},"´":{"ha":255,"x_min":32,"x_max":214,"o":"m 153 844 q 167 844 153 844 q 197 829 182 844 q 212 791 212 814 q 192 753 212 767 l 50 627 l 32 639 l 112 814 q 153 844 125 844 z "},"µ":{"ha":707,"x_min":98,"x_max":677,"o":"m 144 36 q 274 -265 160 -207 q 237 -305 262 -290 q 182 -321 212 -321 q 98 -231 100 -321 l 105 146 l 105 568 l 215 568 l 215 148 q 308 28 215 28 q 490 157 401 28 l 490 568 l 600 568 l 600 32 l 675 23 l 675 0 l 490 0 l 490 118 q 276 -11 401 -11 q 144 36 187 -11 z "},"¶":{"ha":598,"x_min":34,"x_max":554,"o":"m 251 -123 l 251 467 q 93 525 150 467 q 36 672 36 584 q 93 819 36 760 q 249 878 150 878 l 552 878 l 552 855 l 452 839 l 452 -123 l 406 -123 l 406 840 l 297 840 l 297 -123 l 251 -123 z "},"·":{"ha":262,"x_min":59,"x_max":203,"o":"m 183 280 q 172 269 183 280 q 133 258 162 258 q 82 278 103 258 q 61 328 61 297 q 83 378 61 358 q 132 399 105 399 q 181 377 158 399 q 203 329 203 356 q 183 280 203 301 z "},"¸":{"ha":374,"x_min":77,"x_max":296,"o":"m 175 11 l 160 -48 q 294 -150 294 -53 q 254 -228 294 -201 q 163 -255 214 -255 q 77 -244 112 -255 l 84 -221 q 124 -224 96 -224 q 176 -207 151 -224 q 201 -155 201 -189 q 123 -77 201 -84 l 144 11 l 175 11 z "},"¹":{"ha":272,"x_min":53,"x_max":228,"o":"m 55 855 l 55 878 l 180 878 l 180 440 l 226 434 l 226 411 l 55 411 l 55 434 l 101 440 l 101 849 l 55 855 z "},"º":{"ha":548,"x_min":39,"x_max":511,"o":"m 274 436 q 401 600 401 436 l 401 689 q 274 853 401 853 q 148 689 148 853 l 148 600 q 274 436 148 436 m 39 644 q 39 696 39 644 q 106 816 39 748 q 273 883 173 883 q 442 816 374 883 q 510 645 509 750 q 442 474 511 540 q 272 406 374 406 q 105 473 171 406 q 39 644 39 540 z "},"»":{"ha":399,"x_min":57,"x_max":353,"o":"m 189 304 l 68 433 l 57 424 l 105 297 l 57 167 l 68 158 l 189 288 l 189 304 m 162 516 l 151 506 l 255 297 l 151 87 l 162 77 l 351 287 l 351 306 l 162 516 z "},"¼":{"ha":730,"x_min":46,"x_max":691,"o":"m 625 878 l 185 0 l 130 0 l 568 878 l 625 878 m 365 114 l 365 125 l 611 467 l 637 467 l 637 151 l 691 151 l 691 114 l 637 114 l 637 32 l 691 23 l 691 0 l 506 0 l 506 23 l 559 32 l 559 114 l 365 114 m 417 151 l 559 151 l 559 351 l 417 151 m 48 855 l 48 878 l 173 878 l 173 440 l 219 434 l 219 411 l 48 411 l 48 434 l 94 440 l 94 849 l 48 855 z "},"½":{"ha":767,"x_min":52,"x_max":723,"o":"m 593 878 l 155 0 l 98 0 l 538 878 l 593 878 m 52 855 l 52 878 l 178 878 l 178 440 l 224 434 l 224 411 l 52 411 l 52 434 l 98 440 l 98 849 l 52 855 m 721 157 l 721 0 l 420 0 l 420 45 l 547 169 q 637 351 637 256 q 617 418 637 392 q 564 443 597 443 q 513 430 532 443 q 493 391 493 417 q 527 345 493 365 q 514 311 527 324 q 480 297 500 297 q 444 313 459 297 q 429 354 429 329 q 467 437 429 408 q 574 467 506 467 q 682 433 643 467 q 721 348 721 399 q 694 257 721 297 q 614 178 666 217 l 483 71 l 666 71 l 696 157 l 721 157 z "},"¾":{"ha":762,"x_min":39,"x_max":718,"o":"m 678 878 l 239 0 l 183 0 l 621 878 l 678 878 m 390 114 l 390 125 l 636 467 l 662 467 l 662 151 l 716 151 l 716 114 l 662 114 l 662 32 l 716 23 l 716 0 l 532 0 l 532 23 l 586 32 l 586 114 l 390 114 m 442 151 l 586 151 l 586 351 l 442 151 m 139 661 l 139 684 q 222 711 198 687 q 246 785 246 735 q 178 860 246 860 q 123 819 123 860 q 153 780 123 792 q 141 746 153 759 q 109 734 128 734 q 76 749 89 734 q 62 789 62 764 q 98 860 62 837 q 193 883 134 883 q 290 857 253 883 q 328 780 328 832 q 198 673 328 687 l 198 671 q 358 540 358 661 q 309 446 358 486 q 190 406 260 406 q 80 436 119 406 q 41 515 41 467 q 55 555 41 540 q 89 570 69 570 q 122 558 109 570 q 135 524 135 547 q 103 479 103 506 q 176 433 103 433 q 239 459 214 433 q 265 543 265 486 q 236 629 265 600 q 139 661 207 657 z "},"¿":{"ha":563,"x_min":39,"x_max":534,"o":"m 268 557 q 277 567 268 557 q 314 577 287 577 q 361 557 342 577 q 379 511 379 538 q 361 467 379 484 q 314 449 342 449 q 268 467 287 449 q 249 511 249 484 q 268 557 249 538 m 326 385 q 272 162 326 267 q 228 77 249 119 q 173 -109 175 -27 q 206 -264 173 -221 q 293 -308 239 -308 q 388 -280 347 -308 q 429 -201 429 -253 q 374 -125 429 -150 q 396 -66 374 -87 q 451 -45 418 -45 q 508 -69 484 -45 q 532 -137 532 -94 q 457 -279 532 -223 q 270 -335 381 -335 q 99 -285 158 -335 q 39 -118 39 -235 q 109 53 39 -23 q 171 126 137 87 q 233 198 205 164 q 303 385 303 280 l 326 385 z "},"ॐ":{"ha":1111,"x_min":53,"x_max":1040,"o":"m 867 734 q 1040 452 1040 734 q 986 226 1040 310 q 840 142 933 142 q 750 183 776 142 q 723 319 723 223 l 723 369 q 673 463 723 463 q 566 418 632 463 q 653 204 653 299 q 597 55 653 109 q 447 2 541 2 q 183 139 296 2 q 53 477 71 276 l 87 488 q 207 198 116 310 q 417 85 299 85 q 524 132 479 85 q 568 244 568 178 q 470 465 568 365 q 351 363 420 395 l 308 468 q 461 618 461 513 q 365 700 461 700 q 219 659 296 700 l 176 762 q 316 792 237 792 q 451 735 395 792 q 507 584 507 677 q 490 509 507 545 l 513 488 q 682 573 602 573 q 705 572 689 573 q 867 734 735 734 m 732 561 q 769 477 769 541 l 769 358 q 846 233 769 233 q 951 293 908 233 q 994 442 994 353 q 954 588 994 532 q 855 643 915 643 q 732 561 771 643 m 385 899 l 415 921 q 561 840 477 840 q 703 921 645 840 l 791 849 q 614 757 705 757 q 385 899 477 757 m 577 1029 l 643 962 l 577 897 l 511 967 l 577 1029 z "},"॑":{"ha":0,"x_min":-381,"x_max":-297,"o":"m -297 1350 l -381 1350 l -381 1960 l -297 1960 l -297 1350 m -340 1138 z "},"॒":{"ha":0,"x_min":-940,"x_max":-85,"o":"m -522 -126 m -85 -600 l -940 -600 l -940 -527 l -85 -527 l -85 -600 m -522 251 z "},"।":{"ha":208,"x_min":27,"x_max":139,"o":"m 43 570 l 121 570 l 139 552 l 139 -23 q 121 -36 139 -36 l 43 -36 l 27 -23 l 27 552 l 43 570 z "},"॥":{"ha":445,"x_min":27,"x_max":376,"o":"m 43 570 l 121 570 l 139 552 l 139 -23 q 121 -36 139 -36 l 43 -36 l 27 -23 l 27 552 l 43 570 m 281 570 l 358 570 l 376 552 l 376 -23 q 358 -36 376 -36 l 281 -36 l 264 -23 l 264 552 l 281 570 z "},"ఁ":{"ha":561,"x_min":27,"x_max":491,"o":"m 491 -16 l 427 -30 l 361 -34 q 125 55 223 -34 q 27 279 27 144 q 115 507 27 413 q 356 602 203 602 q 491 584 410 602 l 491 547 l 440 552 q 240 475 329 552 q 151 281 151 397 q 210 94 151 166 q 397 12 276 12 l 426 12 q 452 16 436 12 l 491 25 l 491 -16 z "},"ం":{"ha":703,"x_min":27,"x_max":634,"o":"m 634 267 q 483 -4 634 84 q 333 -36 411 -36 q 118 45 210 -36 q 27 264 27 126 q 114 483 27 402 q 333 564 201 564 q 481 532 411 564 q 592 430 550 499 q 634 267 634 361 m 543 167 q 579 262 579 212 q 547 358 579 312 q 450 424 515 404 q 333 443 385 443 q 153 394 224 443 q 84 267 84 353 q 212 109 84 153 l 269 93 l 333 87 q 450 109 395 87 q 543 167 513 125 z "},"ః":{"ha":361,"x_min":27,"x_max":294,"o":"m 162 566 q 191 566 162 566 q 257 533 221 566 q 294 442 294 500 q 255 344 294 385 q 162 310 214 310 q 69 345 110 310 q 27 436 27 381 q 65 529 27 491 q 162 566 103 566 m 27 86 q 27 114 27 86 q 64 181 27 142 q 161 219 101 219 q 257 185 221 219 q 294 92 294 151 q 258 -4 294 32 q 159 -36 215 -36 q 68 -2 103 -36 q 27 86 27 30 m 164 360 q 215 382 189 360 q 240 441 240 404 q 219 498 240 477 q 166 518 198 518 q 109 496 134 518 q 84 442 84 474 q 105 387 84 410 q 164 360 126 365 m 240 87 q 218 144 240 123 q 166 171 196 166 q 108 150 132 171 q 84 92 84 128 q 103 37 84 55 q 164 12 123 18 q 208 31 185 12 q 240 87 231 50 z "},"అ":{"ha":865,"x_min":27,"x_max":796,"o":"m 705 539 q 722 527 705 539 q 767 455 739 515 q 796 300 796 395 q 744 128 796 205 q 603 8 693 52 q 413 -36 513 -36 q 139 59 264 -36 q 57 166 87 100 q 27 307 27 231 q 59 446 27 383 q 137 538 91 509 q 231 566 183 566 q 322 527 280 566 q 365 427 365 488 q 324 329 365 367 q 236 292 283 292 q 137 329 189 292 q 98 418 98 367 q 78 331 78 369 q 258 114 78 175 q 408 85 331 89 q 646 159 552 85 q 741 335 741 233 q 726 432 741 390 q 687 494 710 474 q 635 515 664 515 q 584 497 605 516 q 563 436 563 477 q 659 313 563 377 l 659 265 l 365 265 l 385 310 l 586 310 q 515 447 515 376 q 573 545 515 515 q 636 562 600 561 q 705 539 671 563 m 233 333 q 254 333 233 333 q 295 361 274 333 q 315 427 315 388 q 294 488 315 467 q 233 515 274 515 q 169 487 192 515 q 146 425 146 459 q 169 361 146 390 q 233 333 192 333 z "},"ఆ":{"ha":981,"x_min":27,"x_max":912,"o":"m 757 566 q 865 521 819 566 q 912 423 912 475 q 886 336 912 370 q 824 287 860 301 q 878 189 878 249 q 771 29 878 94 q 470 -36 664 -36 q 151 56 276 -36 q 27 313 27 148 q 87 500 27 434 q 226 566 148 566 q 323 531 281 566 q 365 440 365 495 q 347 358 365 385 q 313 321 324 329 q 286 306 301 313 q 224 299 271 299 q 135 333 178 299 q 100 424 100 369 l 91 399 q 77 322 77 365 q 134 191 77 248 q 349 100 205 128 q 458 89 402 89 q 688 123 575 89 q 801 219 801 157 q 791 254 801 242 q 751 285 782 265 l 404 285 l 427 331 l 680 331 l 643 381 q 630 438 630 406 q 641 493 630 470 q 687 547 652 516 q 757 566 723 566 m 764 331 q 830 359 800 331 q 860 418 860 386 q 840 480 860 449 q 775 518 819 511 q 706 499 732 525 q 680 440 680 474 q 764 331 680 370 m 235 333 q 256 333 235 333 q 296 361 276 333 q 315 427 315 388 q 294 488 315 467 q 234 515 274 515 q 172 487 194 515 q 150 425 150 459 q 172 361 150 390 q 235 333 194 333 z "},"ఇ":{"ha":725,"x_min":27,"x_max":657,"o":"m 27 353 q 77 515 27 454 q 201 575 126 575 q 333 495 276 575 q 479 577 394 577 q 564 547 525 577 q 631 460 605 525 q 653 275 657 395 q 570 73 650 155 q 614 -55 600 18 l 625 -132 l 629 -214 q 613 -258 629 -240 q 561 -276 597 -276 q 507 -260 525 -276 q 484 -219 488 -251 l 509 -110 l 525 -27 l 532 34 q 292 -36 447 -36 q 135 7 203 -36 q 84 110 84 50 q 135 214 84 169 q 296 253 198 253 q 525 141 436 253 q 597 294 580 173 q 564 422 597 388 q 477 456 532 456 q 388 426 422 456 q 354 344 354 397 l 313 344 q 278 427 313 397 l 249 443 q 179 456 219 456 q 102 426 139 456 q 66 353 66 397 l 27 353 m 481 110 q 296 215 411 215 q 205 197 242 215 q 167 148 167 178 q 246 78 166 103 q 296 73 264 73 q 481 110 413 73 z "},"ఈ":{"ha":1318,"x_min":27,"x_max":1250,"o":"m 951 360 q 1104 515 951 515 q 1205 483 1163 515 q 1246 400 1246 452 q 1175 288 1246 347 q 1230 233 1202 281 q 1250 134 1250 185 q 1217 37 1250 82 q 1121 -9 1184 -9 q 1013 41 1058 -9 q 974 155 974 93 q 1024 258 974 217 l 776 258 q 767 178 776 212 q 620 -4 737 61 q 473 -36 554 -36 q 327 -6 392 -36 q 214 100 262 23 q 171 258 171 162 l 27 258 l 27 304 l 173 304 q 237 467 173 395 q 386 556 292 525 q 273 604 315 570 q 228 668 231 637 q 322 751 228 751 q 383 732 356 751 l 395 705 l 420 659 q 472 598 449 598 q 525 630 490 598 l 703 808 l 766 757 l 559 589 l 511 564 q 684 486 607 552 q 775 304 760 420 l 1100 304 q 1141 323 1124 304 q 1165 374 1159 342 q 1075 436 1165 436 q 1027 423 1047 436 q 995 360 1008 410 l 951 360 m 1198 185 q 1117 258 1198 258 q 1036 185 1036 258 q 1059 128 1036 158 q 1121 109 1086 109 q 1177 127 1156 109 q 1198 185 1198 146 m 709 301 q 645 453 709 388 q 471 518 582 518 q 296 455 360 518 q 231 301 231 392 l 709 301 m 707 258 l 228 258 q 301 134 228 192 q 475 77 374 77 q 634 130 575 77 q 707 258 689 173 z "},"ఉ":{"ha":849,"x_min":27,"x_max":780,"o":"m 780 118 q 734 4 780 50 q 600 -36 687 -36 q 408 61 483 -36 q 329 -14 372 18 l 285 -32 q 226 -36 262 -36 q 81 53 135 -36 q 27 261 27 142 q 128 468 27 379 q 390 557 230 557 q 366 648 390 591 q 342 735 342 705 q 360 793 342 766 q 413 823 377 821 q 481 734 481 823 q 458 649 481 710 q 434 557 434 588 q 585 540 525 557 q 718 475 645 524 l 668 424 q 559 491 614 467 q 385 515 491 515 q 187 455 278 515 q 96 331 96 395 l 780 331 l 780 285 l 96 285 q 134 133 96 198 q 242 68 171 68 q 325 87 294 68 q 379 166 356 107 l 433 166 q 552 68 459 94 q 527 126 534 91 q 653 226 527 226 q 780 118 780 226 m 726 123 q 652 175 726 175 q 577 121 577 175 q 598 83 577 96 q 651 69 620 69 q 702 78 682 68 q 726 123 721 89 z "},"ఊ":{"ha":1188,"x_min":27,"x_max":1120,"o":"m 221 732 q 280 823 221 812 q 327 796 306 823 q 347 732 347 769 l 321 639 q 304 547 304 586 l 358 557 l 406 561 l 477 554 q 458 647 477 582 q 438 742 438 712 q 455 797 438 771 q 499 823 472 823 q 563 732 563 823 l 559 705 l 541 639 q 525 550 525 575 q 718 475 616 532 l 668 424 q 548 481 630 458 l 475 497 l 394 502 q 206 447 294 502 q 118 331 118 392 l 965 331 q 1011 352 992 331 q 1035 406 1029 372 q 1012 447 1035 429 q 942 465 990 465 q 864 392 864 465 l 817 392 q 856 503 817 470 q 948 540 896 536 q 1059 508 1001 543 q 1116 433 1116 474 q 1043 321 1116 376 q 1102 271 1088 303 q 1120 173 1120 239 q 1087 65 1120 107 q 986 23 1054 23 q 879 69 919 23 q 839 181 839 114 q 889 290 839 248 l 101 290 l 96 239 q 134 112 96 166 q 233 68 173 68 q 325 87 294 68 q 379 166 356 107 l 433 166 q 547 68 459 87 q 536 126 540 85 q 569 193 536 158 q 654 228 602 228 q 743 200 707 228 q 780 111 780 173 q 734 4 780 50 q 600 -36 687 -36 q 408 61 483 -36 q 335 -11 377 21 q 226 -36 276 -36 q 78 39 134 -36 q 27 217 27 114 q 89 408 27 321 q 262 532 151 495 q 231 675 262 591 l 221 732 m 1070 215 q 985 290 1070 290 q 927 271 949 290 q 905 217 905 251 q 927 161 905 183 q 986 139 949 139 q 1043 157 1024 139 q 1070 215 1061 175 m 647 68 q 684 68 647 68 q 721 122 721 68 q 647 176 721 176 q 573 122 573 176 q 647 68 573 68 z "},"ఋ":{"ha":1729,"x_min":27,"x_max":1660,"o":"m 1421 424 q 1334 500 1350 424 q 1357 547 1334 531 q 1423 566 1378 566 q 1526 522 1467 566 q 1576 470 1560 493 l 1619 401 q 1660 251 1660 315 q 1596 35 1660 109 q 1451 -39 1533 -39 q 1289 14 1369 -39 q 1213 100 1255 37 l 1188 132 q 1143 34 1177 75 q 996 -39 1081 -39 q 833 14 912 -39 q 755 100 801 37 l 737 132 q 693 23 725 62 q 564 -36 637 -36 q 458 -10 490 -36 q 386 75 426 16 q 320 -8 358 20 q 210 -36 281 -36 q 91 0 139 -36 q 43 109 43 39 q 78 185 43 150 q 118 223 93 205 l 176 269 l 237 312 l 280 353 q 313 430 313 386 q 286 494 313 474 q 223 515 258 515 q 137 461 150 515 l 139 434 l 146 420 q 87 358 146 372 q 43 377 68 358 q 27 424 32 390 q 77 533 27 495 q 192 572 126 572 l 226 570 q 345 500 281 570 q 369 422 369 468 q 336 340 369 376 q 231 253 303 304 l 144 182 q 121 139 128 164 q 148 100 121 119 q 214 85 182 85 q 315 112 281 85 q 363 198 349 126 l 413 198 q 557 85 433 85 q 668 124 634 85 q 702 255 702 162 q 675 330 702 290 q 621 396 648 370 q 550 442 593 422 q 488 515 488 463 q 557 570 488 556 q 668 509 620 570 l 703 449 l 732 370 l 741 303 l 744 242 l 743 176 l 773 155 l 837 121 l 903 100 l 972 93 q 1105 137 1059 93 q 1150 258 1150 182 q 965 424 1150 424 q 906 444 926 424 q 878 500 887 465 q 901 547 878 531 q 966 566 922 566 q 1072 522 1010 566 q 1122 470 1104 493 l 1165 401 q 1204 251 1204 315 l 1200 176 l 1225 155 l 1293 121 l 1357 100 l 1425 93 q 1560 137 1515 93 q 1604 258 1604 182 q 1421 424 1604 424 z "},"ఌ":{"ha":985,"x_min":27,"x_max":917,"o":"m 885 616 q 917 369 917 566 q 845 68 917 171 q 650 -36 773 -36 q 484 16 547 -36 q 410 208 410 77 q 530 417 410 288 q 650 595 650 545 q 527 739 650 739 q 433 677 475 739 q 394 495 394 614 l 345 495 q 303 683 345 614 q 194 751 260 751 q 125 710 153 751 q 96 592 96 668 q 132 436 96 516 l 91 436 q 27 618 27 529 q 70 806 27 737 q 187 874 114 874 q 299 823 260 874 q 365 691 328 791 q 399 767 377 734 l 429 823 q 543 874 468 874 q 667 812 618 874 q 716 641 716 750 q 630 461 716 568 q 459 208 459 251 q 512 98 459 139 q 656 57 564 57 q 806 139 748 57 q 864 374 864 221 q 839 468 864 406 l 791 614 q 835 652 791 652 q 865 641 851 652 l 885 616 z "},"ఎ":{"ha":757,"x_min":27,"x_max":687,"o":"m 687 324 q 481 -36 687 -36 q 394 -5 431 -36 q 315 100 353 36 q 262 4 297 50 q 170 -36 228 -36 q 64 16 112 -36 q 27 137 27 73 q 64 256 27 201 q 176 310 101 310 q 256 288 223 310 q 303 242 288 265 l 351 192 q 381 152 370 164 q 427 112 392 141 q 491 89 450 89 q 605 156 570 89 q 639 347 639 223 q 568 573 639 472 q 349 726 497 675 q 297 785 297 743 q 317 826 297 808 q 374 844 337 844 q 520 780 445 844 q 641 594 595 716 q 687 324 687 472 m 181 89 q 204 89 181 89 q 255 114 228 89 q 281 172 281 139 q 255 231 281 205 q 184 258 228 258 q 110 233 141 258 q 84 175 84 207 q 109 117 84 144 q 181 89 134 89 z "},"ఏ":{"ha":757,"x_min":27,"x_max":687,"o":"m 207 976 l 194 933 l 153 858 q 107 732 114 796 q 110 655 98 693 l 119 604 l 135 556 l 96 536 l 66 611 l 45 678 q 32 767 32 721 l 39 874 q 88 1003 50 958 q 167 1043 126 1049 q 207 976 217 1040 m 687 324 q 481 -36 687 -36 q 394 -5 431 -36 q 315 100 353 36 q 262 4 297 50 q 170 -36 228 -36 q 64 16 112 -36 q 27 135 27 73 q 176 310 27 310 q 269 280 221 310 l 319 230 l 351 194 l 392 144 l 426 112 q 491 89 454 89 q 634 344 634 89 q 509 637 634 527 q 349 726 449 693 q 297 785 297 743 q 317 826 297 808 q 374 844 337 844 q 520 780 445 844 q 641 594 595 716 q 687 324 687 472 m 181 89 q 204 89 181 89 q 255 114 228 89 q 281 172 281 139 q 255 231 281 205 q 184 258 228 258 q 110 233 141 258 q 84 175 84 207 q 109 117 84 144 q 181 89 134 89 z "},"ఐ":{"ha":819,"x_min":27,"x_max":751,"o":"m 705 280 q 550 461 705 461 q 406 374 461 461 l 356 374 q 215 461 308 461 q 75 374 121 461 l 28 374 q 85 507 28 452 q 210 561 142 561 q 310 529 256 561 q 377 445 354 497 q 452 528 399 493 q 558 563 506 563 q 651 535 611 563 q 725 436 691 507 q 751 285 751 370 q 645 9 751 109 q 512 -36 582 -36 q 402 -5 442 -36 q 324 100 354 46 q 265 2 306 46 q 173 -36 219 -36 q 65 16 103 -36 q 27 134 27 68 q 68 256 27 201 q 183 310 109 310 q 272 281 237 310 l 321 237 l 356 198 q 433 118 399 142 l 461 100 q 515 89 477 93 q 705 280 705 89 m 179 89 q 203 89 179 89 q 257 114 228 89 q 287 168 287 139 q 275 216 287 198 q 239 247 264 235 q 178 258 215 258 q 111 233 141 258 q 82 175 82 208 q 106 116 82 142 q 179 89 130 89 z "},"ఒ":{"ha":798,"x_min":27,"x_max":728,"o":"m 411 198 q 557 89 443 89 q 634 124 602 89 q 666 233 666 158 l 705 233 l 719 176 l 728 125 q 683 8 728 52 q 568 -36 637 -36 q 392 82 458 -36 l 358 36 l 319 -4 q 207 -36 278 -36 q 82 5 137 -36 q 27 118 27 46 q 62 208 27 160 l 119 255 l 228 331 l 271 367 q 304 438 304 401 q 275 499 304 475 q 201 524 246 524 q 132 472 132 524 q 151 415 132 443 q 91 353 151 363 q 45 371 64 353 q 27 424 27 390 q 74 532 27 491 q 180 572 121 572 q 331 509 281 572 q 358 433 358 475 q 329 358 358 390 l 242 281 l 151 207 q 121 146 121 171 q 230 89 121 89 q 334 124 297 89 q 370 198 370 158 l 411 198 z "},"ఓ":{"ha":798,"x_min":27,"x_max":728,"o":"m 411 198 q 557 89 443 89 q 625 114 595 89 q 655 174 655 139 q 630 242 655 208 l 671 242 q 714 189 700 230 l 723 151 l 728 114 q 683 8 728 52 q 568 -36 637 -36 q 392 82 458 -36 l 358 36 l 319 -4 q 207 -36 278 -36 q 82 5 137 -36 q 27 117 27 46 q 61 215 27 187 l 132 271 l 205 321 q 304 434 304 394 q 201 515 304 515 q 158 502 178 515 q 132 472 137 490 q 151 415 132 443 q 141 365 151 376 q 105 353 135 353 q 46 370 75 353 q 27 434 27 392 q 134 568 27 518 q 87 613 103 584 q 75 684 75 655 q 123 786 75 750 q 224 823 171 823 q 310 807 278 823 q 377 637 377 773 l 333 637 q 303 710 333 675 q 224 739 271 739 q 134 677 134 739 q 191 572 134 614 q 331 513 285 572 q 358 432 358 479 q 331 355 358 385 q 237 281 304 326 l 187 242 l 151 210 q 121 146 121 183 q 230 89 121 89 q 334 124 297 89 q 370 198 370 158 l 411 198 z "},"ఔ":{"ha":999,"x_min":27,"x_max":937,"o":"m 319 744 q 377 673 377 725 q 361 629 377 646 q 310 611 345 611 l 27 611 l 27 552 l 94 552 q 27 424 27 520 q 50 363 27 386 q 107 345 78 345 q 171 418 171 345 q 139 472 139 461 q 200 507 139 507 q 283 491 262 507 q 304 442 304 475 q 278 388 304 408 l 176 312 l 62 215 q 27 118 27 169 q 84 -1 27 41 q 211 -43 141 -43 q 321 -14 281 -43 l 365 28 q 395 69 388 50 q 572 -43 461 -43 q 688 3 641 -43 q 735 114 735 48 l 730 153 l 721 192 q 675 249 705 237 l 621 249 q 655 174 655 205 q 627 119 655 142 q 561 96 598 96 q 463 128 493 96 q 417 205 433 160 l 370 205 q 330 129 370 162 q 233 96 290 96 q 156 106 176 96 q 132 120 135 116 q 128 146 128 125 q 187 235 128 191 l 304 328 q 363 427 365 377 q 319 543 363 524 l 299 559 l 326 552 q 438 666 438 552 q 415 744 438 716 l 686 744 q 652 609 648 684 q 698 479 655 534 q 798 429 741 429 q 896 485 855 429 q 937 647 937 541 q 874 802 937 753 q 726 851 812 851 l 27 851 l 27 744 l 319 744 m 896 655 q 807 561 896 561 q 732 588 759 561 q 709 657 709 627 q 767 744 709 718 q 832 744 794 755 q 896 655 896 728 z "},"క":{"ha":666,"x_min":27,"x_max":593,"o":"m 342 559 l 365 559 q 432 543 379 559 q 525 493 484 527 q 566 429 566 459 q 555 387 566 399 q 511 370 543 376 q 431 402 481 370 l 376 440 l 337 459 l 292 474 q 221 484 256 484 q 118 411 118 484 q 169 344 118 372 q 335 285 210 324 l 449 251 l 486 237 q 531 217 515 231 q 588 128 588 185 q 560 37 588 71 q 475 -16 532 4 l 401 -32 l 312 -36 q 228 -29 265 -36 q 141 4 191 -23 q 27 89 55 46 l 62 157 l 112 128 l 185 101 l 262 84 l 344 77 l 424 80 q 483 95 445 80 q 525 128 520 110 q 477 194 525 162 l 196 285 l 121 319 q 66 413 66 356 q 137 516 66 470 q 205 548 167 536 q 119 584 162 556 q 57 664 57 625 q 148 746 57 746 q 205 726 187 746 q 249 650 223 705 q 303 595 276 595 q 354 627 321 595 l 532 805 l 593 750 l 388 586 q 342 559 369 572 z "},"ఖ":{"ha":759,"x_min":27,"x_max":689,"o":"m 27 115 q 27 147 27 115 q 65 215 27 180 q 173 251 103 251 q 317 164 242 251 q 345 267 345 207 q 278 449 345 365 l 280 418 q 243 321 280 358 q 153 283 207 283 q 63 328 100 283 q 27 424 27 372 q 72 518 27 475 q 175 561 118 561 q 340 454 271 561 q 397 267 397 353 q 372 119 397 182 q 495 73 427 73 q 650 242 650 73 q 605 378 650 326 q 490 431 559 431 q 434 450 465 431 q 415 495 415 472 q 483 561 415 561 q 621 461 552 561 q 689 271 689 361 q 507 -36 689 -36 q 345 53 427 -36 l 353 5 l 394 -130 q 337 -189 394 -189 q 281 -128 281 -189 q 304 -37 281 -114 l 329 46 q 167 -36 244 -36 q 64 4 109 -36 q 27 115 27 50 m 233 420 q 153 509 233 509 q 100 483 126 509 q 77 423 77 456 q 96 356 77 390 q 153 331 112 331 q 233 420 233 331 m 285 119 q 150 199 214 199 q 105 182 128 199 q 91 134 94 167 q 150 73 91 73 q 285 119 233 73 z "},"గ":{"ha":677,"x_min":27,"x_max":607,"o":"m 94 -36 q 27 34 37 -36 q 112 379 27 203 q 231 548 171 500 q 132 584 183 554 q 69 664 69 625 q 164 746 69 746 q 217 726 199 746 q 261 650 235 705 q 315 595 287 595 q 367 627 335 595 l 543 805 l 607 750 l 402 586 q 361 566 381 570 q 510 365 431 529 q 589 34 589 201 q 519 -36 589 -36 q 449 34 449 -36 l 450 69 l 456 112 l 463 146 l 463 169 q 427 397 463 297 q 312 531 381 531 q 199 408 249 531 q 151 167 151 285 l 153 125 l 166 34 q 94 -36 166 -36 z "},"ఘ":{"ha":1222,"x_min":27,"x_max":1154,"o":"m 221 98 q 244 98 221 98 q 292 121 267 98 q 317 179 317 144 q 292 239 317 214 q 225 265 267 265 q 151 240 183 265 q 126 182 126 214 q 150 124 126 150 q 221 98 175 98 m 415 493 q 486 561 415 561 q 636 460 557 561 q 714 255 714 360 l 707 164 l 719 155 l 785 121 l 851 100 l 919 93 q 1053 137 1010 93 q 1097 258 1097 182 q 913 424 1097 424 q 828 500 839 424 q 851 547 828 531 q 915 566 871 566 q 1019 522 960 566 q 1068 470 1052 493 l 1113 401 q 1154 251 1154 315 q 1092 35 1154 109 q 946 -39 1029 -39 q 782 14 864 -39 q 705 100 748 37 l 700 112 q 662 37 686 75 q 536 -36 616 -36 q 433 0 481 -36 q 360 100 386 39 q 294 0 342 43 q 199 -36 248 -36 q 110 8 150 -36 q 69 139 69 52 q 208 313 69 313 q 298 286 260 313 q 376 203 337 258 q 540 93 450 93 q 624 137 591 93 q 657 248 657 182 q 607 370 657 315 q 484 424 556 424 q 434 445 465 424 q 415 493 415 463 m 420 -180 q 402 -221 420 -203 q 358 -239 383 -239 q 294 -180 294 -239 l 301 -132 l 322 -64 l 358 32 l 392 -64 l 410 -126 l 420 -180 m 527 760 l 353 595 q 276 534 299 548 l 208 518 q 82 561 137 518 q 27 664 27 604 q 50 726 27 698 q 118 746 80 746 q 196 675 155 746 l 224 620 q 260 597 249 597 l 271 598 l 288 609 l 322 643 l 465 826 l 527 760 z "},"ఙ":{"ha":800,"x_min":27,"x_max":732,"o":"m 732 125 q 686 8 732 52 q 573 -36 641 -36 q 392 80 456 -36 q 317 -6 358 23 q 205 -36 276 -36 q 78 4 134 -36 q 27 121 27 50 q 166 293 27 192 q 304 442 304 394 q 275 499 304 475 q 201 524 246 524 q 132 472 132 524 q 151 415 132 443 q 137 372 151 386 q 91 353 123 358 q 27 422 27 353 q 73 532 27 491 q 189 572 119 572 q 337 504 287 572 l 353 468 q 358 420 358 452 l 506 420 l 506 584 l 552 584 l 552 420 l 725 420 l 725 374 l 342 374 l 178 224 q 121 146 121 173 q 230 89 121 89 q 334 124 297 89 q 370 198 370 158 l 411 198 q 457 123 426 157 q 557 89 488 89 q 634 124 602 89 q 666 233 666 158 l 705 233 q 732 125 732 171 z "},"చ":{"ha":887,"x_min":27,"x_max":816,"o":"m 481 191 q 623 85 520 85 q 717 126 680 85 q 753 242 753 167 q 670 447 753 363 q 468 552 586 531 q 321 584 392 552 q 223 680 223 629 q 299 764 223 764 q 399 714 344 764 l 459 641 q 500 616 484 621 l 516 620 l 534 630 l 766 880 l 816 814 l 545 586 l 579 572 q 694 499 637 547 q 807 246 807 401 q 765 28 807 91 q 625 -36 723 -36 q 467 64 527 -36 q 397 -14 431 7 q 303 -36 369 -36 q 194 2 237 -36 q 153 113 153 45 q 201 255 153 182 l 27 255 l 27 301 l 264 301 q 224 171 224 223 q 322 85 224 85 q 394 106 372 85 q 449 191 417 126 l 481 191 z "},"ఛ":{"ha":887,"x_min":27,"x_max":816,"o":"m 481 191 q 623 85 520 85 q 717 126 680 85 q 753 242 753 167 q 670 447 753 363 q 468 552 586 531 q 321 584 392 552 q 223 680 223 629 q 299 764 223 764 q 399 714 344 764 l 459 641 q 500 616 484 621 l 516 620 l 534 630 l 766 880 l 816 814 l 545 586 l 579 572 q 694 499 637 547 q 807 246 807 401 q 765 28 807 91 q 625 -36 723 -36 q 467 64 527 -36 q 397 -14 431 7 q 303 -36 369 -36 q 194 2 237 -36 q 153 113 153 45 q 201 255 153 182 l 27 255 l 27 301 l 264 301 q 224 171 224 223 q 322 85 224 85 q 394 106 372 85 q 449 191 417 126 l 481 191 m 518 -119 q 531 -177 531 -155 q 511 -223 531 -199 q 467 -239 497 -233 q 428 -223 449 -239 q 404 -180 408 -207 l 410 -132 l 467 32 l 500 -73 l 518 -119 z "},"జ":{"ha":798,"x_min":27,"x_max":728,"o":"m 411 198 q 557 89 443 89 q 634 124 602 89 q 666 233 666 158 l 705 233 l 719 176 l 728 125 q 683 8 728 52 q 568 -36 637 -36 q 392 80 458 -36 q 313 -12 360 25 l 278 -30 l 214 -36 q 82 5 137 -36 q 27 118 27 46 q 62 208 27 160 q 175 290 85 228 q 304 442 304 383 q 275 499 304 475 q 201 524 246 524 q 132 472 132 524 q 151 415 132 443 q 137 372 151 386 q 91 353 123 358 q 27 422 27 353 q 74 532 27 491 q 192 572 121 572 q 342 516 283 572 q 374 479 356 504 q 572 392 454 392 q 666 450 666 392 q 621 518 666 484 q 511 552 575 552 l 511 591 q 668 546 607 591 q 728 436 728 500 q 688 332 728 372 q 593 292 648 292 q 354 459 477 292 l 358 424 q 278 310 358 390 l 151 207 q 121 146 121 171 q 230 89 121 89 q 334 124 297 89 q 370 198 370 158 l 411 198 z "},"ఝ":{"ha":1549,"x_min":27,"x_max":1480,"o":"m 329 105 q 385 105 329 105 q 507 161 442 105 q 572 300 572 217 q 511 441 572 383 q 337 499 450 499 q 158 441 223 499 q 93 299 93 383 q 154 160 93 215 q 329 105 215 105 m 1241 424 q 1154 500 1165 424 q 1177 547 1154 531 q 1243 566 1198 566 q 1334 530 1287 566 q 1396 470 1380 493 l 1437 401 q 1480 251 1480 315 q 1418 35 1480 109 q 1272 -39 1357 -39 q 1109 14 1188 -39 q 1047 77 1077 37 q 1175 -89 1092 -89 q 1222 -105 1204 -89 q 1239 -144 1239 -121 q 1217 -183 1239 -167 q 1159 -198 1195 -198 q 1051 -125 1088 -198 q 1013 -12 1024 -64 q 1002 62 1002 39 q 832 -39 954 -39 q 675 14 746 -39 q 591 101 629 45 q 485 3 556 41 q 333 -36 415 -36 q 182 -1 251 -36 q 69 106 112 34 q 27 272 27 178 q 116 488 27 411 q 219 550 166 529 q 116 582 169 554 q 52 664 52 625 q 146 746 52 746 q 202 726 185 746 q 244 650 219 705 q 299 595 269 595 q 351 627 315 595 l 527 805 l 588 750 l 385 586 l 354 566 q 480 534 411 566 q 591 434 548 502 q 634 272 634 365 l 634 214 q 627 183 629 191 l 616 151 l 686 118 q 819 93 746 93 q 937 136 892 93 q 981 260 981 180 q 924 388 981 340 q 810 424 862 424 q 721 500 739 424 q 743 548 721 531 q 809 566 766 566 q 913 522 853 566 q 1011 392 976 468 q 1047 251 1047 315 l 1045 196 l 1038 160 l 1111 121 l 1177 100 l 1243 93 q 1380 137 1335 93 q 1425 258 1425 182 q 1241 424 1425 424 z "},"ఞ":{"ha":1125,"x_min":27,"x_max":1056,"o":"m 27 353 q 77 515 27 454 q 201 575 126 575 q 333 495 276 575 q 479 577 394 577 q 564 547 525 577 q 627 465 604 525 l 643 404 l 648 331 l 828 331 l 828 575 l 878 575 l 878 331 l 1056 331 l 1056 290 l 648 290 q 572 71 648 173 l 602 -11 l 623 -110 l 629 -214 q 613 -258 629 -240 q 561 -276 597 -276 q 507 -260 525 -276 q 484 -219 484 -248 q 507 -135 484 -198 l 524 -73 l 529 -21 l 524 25 q 292 -36 438 -36 q 135 7 203 -36 q 84 110 84 50 q 135 214 84 169 q 279 253 198 253 q 409 234 360 253 q 499 173 458 215 l 525 141 q 597 295 597 201 q 564 422 597 388 q 477 456 532 456 q 388 426 422 456 q 354 344 354 397 l 313 344 q 278 427 313 397 l 249 443 q 179 456 219 456 q 102 426 139 456 q 66 353 66 397 l 27 353 m 484 112 l 465 135 q 381 194 436 169 l 333 208 l 280 215 q 196 198 237 215 q 166 144 167 178 q 326 73 166 73 q 484 112 413 73 z "},"ట":{"ha":963,"x_min":27,"x_max":896,"o":"m 714 561 q 837 472 778 561 q 896 256 896 383 q 835 47 896 130 q 673 -36 775 -36 q 558 1 616 -36 q 461 110 500 37 q 378 4 440 43 q 262 -36 317 -36 q 96 54 166 -36 q 27 299 27 144 q 59 442 27 381 q 219 563 114 563 l 178 698 q 192 743 178 728 q 237 762 207 757 q 272 749 258 762 q 294 698 287 735 l 255 563 q 334 517 299 557 q 369 421 369 477 q 332 325 369 365 q 239 285 296 285 q 145 323 183 285 q 107 418 107 361 l 84 367 q 77 281 77 337 q 129 145 77 201 q 261 89 182 89 q 376 118 340 89 q 440 230 411 148 l 486 230 q 556 125 511 160 q 676 89 600 89 q 796 137 751 89 q 840 257 840 185 q 807 374 840 329 q 726 429 776 418 q 629 502 636 449 q 714 561 629 561 m 235 333 q 252 333 235 333 q 292 359 269 333 q 315 423 315 385 q 294 484 315 461 q 239 509 276 509 q 157 422 173 509 q 179 359 157 385 q 235 333 201 333 z "},"ఠ":{"ha":707,"x_min":27,"x_max":639,"o":"m 333 379 q 397 318 397 379 q 333 256 397 256 q 283 274 306 256 q 265 317 265 292 q 281 361 265 342 q 333 379 301 374 m 329 105 q 385 105 329 105 q 507 161 442 105 q 572 300 572 217 q 511 441 572 383 q 337 499 450 499 q 158 441 223 499 q 93 299 93 383 q 154 160 93 215 q 329 105 215 105 m 360 566 q 488 531 427 559 q 591 434 548 502 q 634 272 634 365 q 597 113 639 187 q 485 2 556 39 q 333 -36 415 -36 q 182 -1 251 -36 q 69 106 112 34 q 27 272 27 178 q 118 490 27 411 q 201 543 164 527 q 198 550 240 543 q 130 577 164 559 q 68 661 68 621 q 160 743 68 743 q 215 721 196 743 q 259 645 233 700 q 313 589 285 589 q 363 623 333 589 l 541 801 l 605 746 l 397 579 q 360 566 386 573 z "},"డ":{"ha":855,"x_min":27,"x_max":785,"o":"m 785 146 q 733 10 785 55 q 593 -36 680 -36 q 385 78 475 -36 l 337 18 q 207 -36 283 -36 q 85 2 132 -36 q 27 193 27 55 q 97 426 27 331 q 315 552 167 520 l 246 577 l 208 598 l 166 639 q 151 675 151 655 q 237 755 151 755 q 292 735 267 755 q 343 658 317 716 q 395 600 369 600 q 413 604 410 600 l 449 634 l 664 830 l 751 767 l 420 561 q 593 545 541 561 q 725 479 652 532 l 684 429 l 582 486 q 417 516 520 516 q 191 435 280 516 q 101 242 101 354 q 134 140 101 182 q 230 98 166 98 q 360 185 315 98 l 411 185 q 538 98 445 98 l 525 134 l 525 169 q 559 239 525 214 q 654 269 605 269 q 744 238 703 269 q 785 146 785 207 m 735 157 q 661 219 735 219 q 575 157 586 219 q 599 112 575 132 q 655 93 623 93 q 708 110 687 93 q 735 157 728 128 z "},"ఢ":{"ha":855,"x_min":27,"x_max":785,"o":"m 785 146 q 733 10 785 55 q 593 -36 680 -36 q 385 78 475 -36 q 361 46 376 68 q 218 -36 304 -36 q 85 2 132 -36 q 27 193 27 55 q 97 426 27 331 q 315 552 167 520 l 246 577 l 208 598 l 166 639 q 151 675 151 655 q 237 755 151 755 q 292 735 267 755 q 343 658 317 716 q 395 600 369 600 q 413 604 410 600 l 449 634 l 664 830 l 751 767 l 420 561 q 593 545 541 561 q 725 479 652 532 l 684 429 l 582 486 q 417 516 520 516 q 191 435 280 516 q 101 242 101 354 q 134 140 101 182 q 230 98 166 98 q 360 185 315 98 l 411 185 q 538 98 445 98 l 525 135 q 559 239 516 207 q 654 269 605 269 q 744 238 703 269 q 785 146 785 207 m 735 157 q 661 219 735 219 q 575 157 586 219 q 599 112 575 132 q 655 93 623 93 q 708 110 687 93 q 735 157 728 128 m 385 -223 q 321 -164 331 -223 q 329 -109 321 -132 l 354 -39 l 381 48 l 415 -57 q 445 -164 440 -126 q 427 -205 445 -189 q 385 -223 413 -223 z "},"ణ":{"ha":974,"x_min":27,"x_max":905,"o":"m 233 561 q 442 424 356 561 q 652 561 524 561 q 842 475 780 561 q 905 252 905 388 q 869 36 905 116 q 728 -36 828 -36 q 611 0 659 -36 q 572 90 572 39 q 611 180 572 141 q 718 219 650 219 q 848 125 810 219 l 855 208 q 807 374 855 312 q 655 436 759 436 q 541 407 582 436 q 468 312 500 377 l 417 312 q 223 443 374 443 q 175 442 189 443 q 139 424 160 440 q 112 379 118 408 q 153 315 112 344 q 267 274 194 287 l 267 242 l 230 237 l 189 223 q 147 193 166 217 q 121 134 128 169 q 251 14 121 14 q 408 53 315 14 l 434 25 q 226 -36 344 -36 q 85 7 142 -36 q 27 134 27 50 q 128 256 27 205 q 27 411 27 337 q 84 512 27 463 q 233 561 141 561 m 714 146 q 632 77 636 146 q 651 32 632 50 q 714 0 670 14 q 777 24 753 0 q 801 77 801 48 q 775 126 801 107 q 714 146 748 146 z "},"త":{"ha":858,"x_min":27,"x_max":791,"o":"m 191 242 q 210 242 191 242 q 256 269 230 242 q 281 331 281 296 q 256 389 281 367 q 193 411 231 411 q 126 386 155 411 q 103 328 110 369 q 128 269 103 304 q 191 242 151 242 m 629 242 q 648 242 629 242 q 694 272 668 242 q 721 329 721 303 q 710 377 721 354 q 632 420 689 420 q 568 395 595 420 q 541 333 541 370 q 568 271 541 296 q 629 242 589 242 m 440 552 l 420 552 q 276 584 349 552 q 175 680 175 629 q 255 764 175 764 q 353 714 299 764 l 411 641 q 458 616 440 621 l 468 620 l 486 630 l 719 880 l 771 814 l 507 591 q 689 524 609 580 q 791 310 791 445 q 748 121 791 201 q 413 -36 662 -36 q 132 49 237 -36 q 27 290 27 134 q 77 413 27 370 q 186 459 123 459 q 289 423 249 459 q 329 326 329 386 q 287 226 329 265 q 181 191 244 191 q 82 244 118 191 q 175 134 82 183 q 421 85 267 85 q 649 131 575 85 q 730 239 723 176 q 640 198 702 198 q 538 233 579 198 q 497 329 497 269 q 541 426 497 388 q 666 463 586 463 q 567 517 655 488 q 440 552 479 547 z "},"థ":{"ha":833,"x_min":27,"x_max":764,"o":"m 764 208 q 712 28 764 91 q 575 -36 661 -36 q 395 80 450 -36 q 324 -9 376 34 q 203 -36 276 -36 q 78 28 130 -36 q 27 218 27 91 q 101 436 27 345 q 306 557 176 527 l 280 564 q 258 575 264 572 l 214 602 l 176 639 q 166 675 166 655 q 249 755 166 755 q 303 735 278 755 q 353 658 328 716 q 408 600 377 600 q 426 605 422 600 l 459 634 l 678 830 l 760 767 l 438 564 q 668 456 572 552 q 764 208 764 360 m 561 77 q 657 123 623 77 q 691 261 691 169 q 606 434 691 353 q 398 515 522 515 q 188 435 274 515 q 101 255 101 356 q 233 77 101 77 q 379 191 347 77 l 420 191 q 561 77 438 77 m 481 335 q 399 258 481 258 q 345 278 369 258 q 321 332 321 297 q 342 388 321 367 q 399 411 361 404 q 460 391 440 411 q 481 335 481 370 m 458 -176 q 443 -217 458 -203 q 394 -237 429 -231 q 333 -176 333 -237 q 356 -66 333 -148 l 394 34 l 433 -75 q 458 -176 458 -150 z "},"ద":{"ha":833,"x_min":27,"x_max":764,"o":"m 764 208 q 712 28 764 91 q 575 -36 661 -36 q 395 80 450 -36 q 324 -9 376 34 q 203 -36 276 -36 q 78 28 130 -36 q 27 218 27 91 q 101 436 27 345 q 306 557 176 527 l 280 564 q 258 575 264 572 l 214 602 l 176 639 q 166 675 166 655 q 249 755 166 755 q 303 735 278 755 q 353 658 328 716 q 408 600 377 600 q 426 605 422 600 l 459 634 l 678 830 l 760 767 l 438 564 q 668 456 572 552 q 764 208 764 360 m 561 77 q 657 123 623 77 q 691 261 691 169 q 606 434 691 353 q 398 515 522 515 q 188 435 274 515 q 101 255 101 356 q 233 77 101 77 q 379 191 347 77 l 420 191 q 561 77 438 77 z "},"ధ":{"ha":833,"x_min":27,"x_max":764,"o":"m 764 208 q 712 28 764 91 q 575 -36 661 -36 q 395 80 450 -36 q 324 -9 376 34 q 203 -36 276 -36 q 78 28 130 -36 q 27 218 27 91 q 101 436 27 345 q 306 557 176 527 l 280 564 q 258 575 264 572 l 214 602 l 176 639 q 166 675 166 655 q 249 755 166 755 q 303 735 278 755 q 353 658 328 716 q 408 600 377 600 q 426 605 422 600 l 459 634 l 678 830 l 760 767 l 438 564 q 668 456 572 552 q 764 208 764 360 m 561 77 q 657 123 623 77 q 691 261 691 169 q 606 434 691 353 q 398 515 522 515 q 188 435 274 515 q 101 255 101 356 q 233 77 101 77 q 379 191 347 77 l 420 191 q 561 77 438 77 m 458 -176 q 443 -217 458 -203 q 394 -237 429 -231 q 333 -176 333 -237 q 356 -66 333 -148 l 394 34 l 433 -75 q 458 -176 458 -150 z "},"న":{"ha":759,"x_min":27,"x_max":689,"o":"m 395 591 q 580 502 495 579 q 689 274 689 406 q 479 -36 689 -36 q 396 -12 434 -36 q 338 39 358 11 l 315 71 l 256 178 q 171 249 212 249 q 128 233 141 249 q 121 155 98 212 q 165 97 132 126 q 196 23 198 68 q 126 -36 178 -36 q 55 14 91 -36 q 27 123 30 71 q 62 245 27 196 q 173 294 98 294 q 250 267 214 294 q 333 191 287 240 l 377 146 l 413 119 q 490 93 449 93 q 636 271 636 93 q 547 463 636 374 q 342 552 458 552 l 304 550 q 160 582 231 550 q 61 678 61 627 q 137 762 61 762 q 239 712 183 762 l 297 637 q 342 614 322 620 l 354 618 l 372 627 l 605 878 l 655 812 l 395 591 z "},"ప":{"ha":782,"x_min":27,"x_max":714,"o":"m 415 493 q 486 561 415 561 q 636 460 557 561 q 714 255 714 360 q 665 38 714 112 q 536 -36 616 -36 q 433 0 481 -36 q 360 100 386 39 q 294 0 342 43 q 199 -36 248 -36 q 110 8 150 -36 q 69 139 69 52 q 208 313 69 313 q 298 286 260 313 q 376 203 337 258 q 540 93 450 93 q 624 137 591 93 q 657 248 657 182 q 607 370 657 315 q 484 424 556 424 q 434 445 465 424 q 415 493 415 463 m 221 98 q 244 98 221 98 q 292 121 267 98 q 317 179 317 144 q 292 239 317 214 q 225 265 267 265 q 151 240 183 265 q 126 182 126 214 q 150 124 126 150 q 221 98 175 98 m 527 760 l 353 595 q 276 534 299 548 l 208 518 q 82 561 137 518 q 27 664 27 604 q 50 726 27 698 q 118 746 80 746 q 196 675 155 746 l 224 620 q 260 597 249 597 l 271 598 l 288 609 l 322 643 l 465 826 l 527 760 z "},"ఫ":{"ha":782,"x_min":27,"x_max":714,"o":"m 415 493 q 486 561 415 561 q 636 460 557 561 q 714 255 714 360 q 665 38 714 112 q 536 -36 616 -36 q 433 0 481 -36 q 360 100 386 39 q 294 0 342 43 q 199 -36 248 -36 q 110 8 150 -36 q 69 139 69 52 q 208 313 69 313 q 298 286 260 313 q 376 203 337 258 q 540 93 450 93 q 624 137 591 93 q 657 248 657 182 q 607 370 657 315 q 484 424 556 424 q 434 445 465 424 q 415 493 415 463 m 221 98 q 244 98 221 98 q 292 121 267 98 q 317 179 317 144 q 292 239 317 214 q 225 265 267 265 q 151 240 183 265 q 126 182 126 214 q 150 124 126 150 q 221 98 175 98 m 420 -180 q 402 -221 420 -203 q 358 -239 383 -239 q 294 -180 294 -239 l 301 -132 l 322 -64 l 358 32 l 392 -64 l 410 -126 l 420 -180 m 527 760 l 353 595 q 276 534 299 548 l 208 518 q 82 561 137 518 q 27 664 27 604 q 50 726 27 698 q 118 746 80 746 q 196 675 155 746 l 224 620 q 260 597 249 597 l 271 598 l 288 609 l 322 643 l 465 826 l 527 760 z "},"బ":{"ha":814,"x_min":27,"x_max":744,"o":"m 488 515 q 557 570 488 556 q 666 511 620 570 q 732 372 712 452 l 741 303 l 744 242 q 691 23 744 82 q 564 -36 637 -36 q 458 -10 490 -36 q 386 75 426 16 q 320 -8 358 20 q 210 -36 281 -36 q 91 0 139 -36 q 43 109 43 39 q 78 185 43 150 q 118 223 93 205 l 176 269 l 237 312 l 280 353 q 313 430 313 386 q 286 494 313 474 q 223 515 258 515 q 137 461 150 515 l 139 434 l 146 420 q 93 361 142 369 q 43 377 68 358 q 27 424 32 390 q 77 533 27 495 q 192 572 126 572 l 226 570 q 345 500 281 570 q 369 422 369 468 q 336 340 369 376 q 231 253 303 304 l 144 182 q 121 139 128 164 q 148 100 121 119 q 214 85 182 85 q 315 112 281 85 q 363 198 349 126 l 413 198 q 557 85 433 85 q 668 124 634 85 q 702 255 702 162 q 675 330 702 290 q 621 396 648 370 q 550 442 593 422 q 488 515 488 463 z "},"భ":{"ha":894,"x_min":27,"x_max":823,"o":"m 589 568 q 668 497 632 545 q 743 266 743 402 q 698 52 743 130 q 572 -36 652 -36 q 455 -9 493 -36 q 383 94 417 18 q 311 -6 360 23 q 191 -36 262 -36 q 77 7 121 -36 q 32 115 32 50 q 66 221 32 180 q 171 303 96 253 q 304 442 304 388 q 279 499 304 474 q 219 524 253 524 q 167 511 185 524 q 151 452 151 497 l 151 420 q 134 374 151 394 q 91 353 118 354 q 27 420 27 353 q 82 527 27 488 q 210 566 141 566 q 358 452 358 566 q 272 312 358 385 l 144 215 q 118 148 118 189 q 205 77 118 77 q 363 198 319 77 l 411 198 q 463 109 433 137 q 557 85 493 85 q 691 267 691 85 q 629 463 691 385 q 504 547 575 536 l 490 547 q 351 586 413 547 q 288 664 288 625 q 379 746 288 746 q 438 726 420 746 q 482 650 456 705 q 536 595 507 595 q 582 627 552 595 l 762 805 l 823 750 l 618 586 q 589 568 609 575 m 433 -119 q 445 -177 445 -155 q 427 -223 445 -199 q 385 -239 411 -233 q 344 -223 365 -239 q 317 -180 322 -207 l 324 -132 l 383 32 l 415 -73 l 433 -119 z "},"మ":{"ha":1168,"x_min":27,"x_max":1100,"o":"m 264 175 q 239 231 264 207 q 175 255 214 255 q 112 231 135 255 q 89 175 89 208 q 110 118 89 141 q 175 94 137 94 q 264 175 264 94 m 864 424 q 776 500 787 424 q 798 547 776 531 q 862 566 817 566 q 967 522 906 566 q 1015 470 999 493 l 1061 401 q 1100 251 1100 315 q 1039 35 1100 109 q 894 -39 978 -39 q 730 14 810 -39 q 652 100 700 37 l 645 110 q 618 52 641 85 q 473 -34 566 -34 q 303 98 379 -34 q 255 4 297 46 q 156 -34 210 -34 q 64 10 101 -34 q 27 130 27 53 q 62 256 27 207 q 172 304 98 304 q 328 199 246 304 q 470 94 410 94 q 609 274 609 94 q 507 472 609 390 q 315 552 420 543 l 294 552 q 148 584 223 552 q 48 680 48 629 q 128 764 48 764 q 226 714 173 764 l 287 641 q 333 616 313 621 l 344 620 l 361 630 l 595 880 l 645 814 l 381 591 q 554 506 477 568 q 670 271 670 413 q 659 160 670 217 l 666 155 l 734 121 l 800 100 l 867 93 q 1003 137 958 93 q 1049 258 1049 182 q 864 424 1049 424 z "},"య":{"ha":1538,"x_min":27,"x_max":1471,"o":"m 444 114 q 472 126 444 114 q 526 184 500 139 q 552 269 552 230 q 526 348 552 308 q 447 413 500 388 l 408 427 q 313 442 365 442 q 240 436 260 442 q 189 417 223 436 q 109 353 130 392 q 84 267 84 313 q 144 141 84 196 q 315 89 208 89 q 444 114 388 89 m 1234 427 q 1145 502 1161 427 q 1168 548 1145 532 q 1232 570 1189 570 q 1339 524 1275 570 q 1387 472 1371 495 l 1432 402 q 1471 253 1471 317 q 1408 37 1471 110 q 1262 -36 1346 -36 q 1100 18 1179 -36 q 1024 101 1068 39 l 1013 121 q 1010 109 1013 114 q 935 -2 983 41 q 810 -36 883 -36 l 776 -36 l 751 -30 l 702 -5 l 662 23 l 636 46 l 568 112 q 468 2 540 45 q 315 -36 392 -36 q 116 45 205 -36 q 27 267 27 126 q 66 424 27 360 q 173 519 105 488 q 316 555 240 550 q 459 524 392 559 q 563 422 520 497 q 604 264 604 358 l 602 223 q 593 178 602 201 q 796 89 696 89 q 938 129 896 89 q 981 274 981 169 q 951 391 981 328 q 862 495 921 454 q 707 548 796 532 l 678 547 q 540 584 604 547 q 477 664 477 625 q 570 746 477 746 q 626 726 609 746 q 668 653 643 705 q 714 597 693 600 l 730 595 q 775 627 743 598 l 953 805 l 1011 750 l 808 586 l 794 579 l 839 561 q 947 484 908 529 q 1036 274 1036 379 q 1029 166 1036 214 l 1038 157 l 1104 123 l 1168 101 l 1238 94 q 1373 139 1328 94 q 1417 260 1417 183 q 1234 427 1417 427 z "},"ర":{"ha":707,"x_min":27,"x_max":639,"o":"m 329 105 q 385 105 329 105 q 507 161 442 105 q 572 300 572 217 q 511 441 572 383 q 337 499 450 499 q 158 441 223 499 q 93 299 93 383 q 154 160 93 215 q 329 105 215 105 m 360 566 q 488 531 427 559 q 591 434 548 502 q 634 272 634 365 q 597 113 639 187 q 485 2 556 39 q 333 -36 415 -36 q 182 -1 251 -36 q 69 106 112 34 q 27 272 27 178 q 118 490 27 411 q 201 543 164 527 q 198 550 240 543 q 130 577 164 559 q 68 661 68 621 q 160 743 68 743 q 215 721 196 743 q 259 645 233 700 q 313 589 285 589 q 363 623 333 589 l 541 801 l 605 746 l 397 579 q 360 566 386 573 z "},"ఱ":{"ha":935,"x_min":27,"x_max":865,"o":"m 865 255 q 812 57 865 150 q 655 -36 759 -36 q 577 -22 600 -36 q 461 98 554 -9 l 390 16 q 265 -36 333 -36 q 89 63 151 -36 q 27 315 27 162 q 83 501 27 427 q 224 575 139 575 q 322 536 280 575 q 365 435 365 497 q 324 334 365 374 q 227 294 283 294 q 134 330 171 294 q 98 413 98 367 l 78 367 q 71 308 71 342 q 121 148 71 215 q 256 91 173 91 q 434 214 392 91 l 486 214 q 668 91 531 91 q 776 140 737 91 q 816 296 816 189 q 777 460 816 402 q 686 518 739 518 q 625 457 625 518 q 735 310 625 395 l 725 267 l 351 267 l 370 315 l 666 315 q 602 374 629 333 q 577 462 577 415 q 604 540 577 509 q 680 572 630 572 q 807 495 753 572 q 865 255 865 406 m 228 340 q 246 340 228 340 q 286 363 264 340 q 308 429 308 386 q 286 499 308 472 q 228 525 264 525 q 168 500 192 525 q 144 433 144 475 q 168 365 144 390 q 228 340 192 340 z "},"ల":{"ha":748,"x_min":27,"x_max":680,"o":"m 443 506 q 518 566 443 556 q 627 483 573 566 q 680 304 680 401 q 585 57 680 150 q 356 -36 490 -36 q 125 59 223 -36 q 27 313 27 153 q 89 494 27 422 q 219 566 151 566 q 326 527 287 566 q 365 429 365 488 q 324 331 365 370 q 231 297 283 297 q 135 331 178 297 q 98 418 98 372 l 84 376 l 78 324 l 78 299 q 160 150 78 212 q 354 87 242 87 q 543 141 467 87 q 630 299 630 199 q 592 413 630 370 q 518 456 554 456 q 443 506 454 456 m 315 424 q 292 490 315 465 q 231 515 269 515 q 170 488 194 515 q 146 424 146 461 q 170 360 146 386 q 231 333 194 333 q 291 358 267 333 q 315 424 315 383 z "},"ళ":{"ha":808,"x_min":27,"x_max":737,"o":"m 737 800 l 461 588 q 625 510 561 568 q 689 371 689 452 q 625 230 689 290 q 442 157 541 157 q 563 114 522 142 q 577 73 573 107 q 516 -11 577 27 q 354 -36 452 -36 q 195 -7 256 -36 q 134 77 134 21 q 182 132 134 101 l 224 150 l 267 160 q 89 230 151 171 q 27 346 27 288 q 64 447 27 404 q 162 490 101 490 q 272 450 223 490 q 312 354 312 410 q 280 264 312 299 q 192 230 248 230 q 274 199 212 217 l 369 192 q 525 226 440 192 q 634 367 634 276 q 548 499 634 443 q 381 554 461 554 q 164 632 264 554 q 142 684 146 655 q 223 767 142 767 q 317 716 274 767 l 374 637 q 417 614 399 620 l 431 620 l 454 634 l 687 858 l 737 800 m 166 267 q 184 267 166 267 q 230 290 203 267 q 256 351 256 313 q 231 412 256 388 q 166 436 205 436 q 78 353 78 436 q 103 290 78 313 q 166 267 128 267 m 506 77 q 454 112 506 87 q 358 137 402 137 q 262 119 313 137 q 208 77 210 101 q 256 37 208 57 q 356 27 303 27 q 506 77 506 27 z "},"ఴ":{"ha":963,"x_min":27,"x_max":896,"o":"m 308 429 q 308 450 308 429 q 286 499 308 472 q 228 525 264 525 q 168 500 192 525 q 144 433 144 475 q 168 365 144 390 q 228 340 192 340 q 286 363 264 340 q 308 429 308 386 m 780 433 q 780 454 780 433 q 755 500 780 475 q 694 525 730 525 q 636 499 659 525 q 613 429 613 472 q 636 363 613 386 q 694 340 659 340 q 755 365 730 340 q 780 433 780 390 m 461 98 l 390 16 q 265 -36 333 -36 q 89 63 151 -36 q 27 315 27 162 q 83 501 27 427 q 224 575 139 575 q 322 536 280 575 q 365 435 365 497 q 324 334 365 374 q 227 294 283 294 q 134 330 171 294 q 98 413 98 367 l 78 367 q 71 308 71 342 q 121 148 71 215 q 256 91 173 91 q 434 214 392 91 l 486 214 q 666 91 532 91 q 800 148 748 91 q 851 308 851 215 q 844 367 851 342 l 824 413 q 789 330 824 367 q 694 294 753 294 q 597 334 636 294 q 557 435 557 374 q 600 536 557 497 q 700 575 643 575 q 839 501 782 575 q 896 315 896 427 q 834 63 896 162 q 655 -36 773 -36 q 532 16 591 -36 l 461 98 z "},"వ":{"ha":739,"x_min":27,"x_max":670,"o":"m 264 175 q 239 231 264 207 q 175 255 214 255 q 112 231 135 255 q 89 175 89 208 q 110 118 89 141 q 175 94 137 94 q 264 175 264 94 m 315 552 l 294 552 q 148 584 223 552 q 48 680 48 629 q 128 764 48 764 q 226 714 173 764 l 287 641 q 333 616 313 621 l 344 620 l 361 630 l 595 880 l 645 814 l 381 591 q 554 506 477 568 q 670 273 670 413 q 618 50 670 134 q 473 -34 566 -34 q 303 98 379 -34 q 255 4 297 46 q 156 -34 210 -34 q 64 10 101 -34 q 27 130 27 53 q 62 256 27 207 q 172 304 98 304 q 328 199 246 304 q 470 94 410 94 q 609 274 609 94 q 507 472 609 390 q 315 552 420 543 z "},"శ":{"ha":698,"x_min":27,"x_max":627,"o":"m 392 82 q 416 82 392 82 q 478 110 440 82 q 516 182 516 137 q 449 299 516 253 l 340 235 q 278 171 280 199 q 306 103 278 128 q 392 82 344 82 m 493 326 q 572 125 572 248 q 515 7 572 50 q 379 -36 458 -36 q 247 7 301 -36 q 192 112 192 50 q 251 231 192 175 l 306 274 l 399 329 l 306 363 q 226 374 267 374 q 139 328 139 374 l 148 296 l 155 267 q 142 219 155 233 q 94 199 130 205 q 45 210 73 199 q 27 267 27 223 q 77 385 27 335 q 201 418 123 418 q 450 361 358 418 q 511 450 511 401 q 443 516 511 483 q 321 548 386 541 l 292 547 q 151 584 215 547 q 93 664 93 625 q 183 746 93 746 q 239 726 221 746 q 281 653 258 705 q 326 597 304 600 l 342 595 q 386 627 363 604 l 563 805 l 627 750 l 422 584 q 572 443 572 552 q 554 390 572 417 q 493 326 536 363 z "},"ష":{"ha":979,"x_min":27,"x_max":910,"o":"m 849 -82 q 890 -98 871 -82 q 910 -138 910 -114 q 888 -178 910 -162 q 832 -194 865 -194 q 687 -21 732 -194 q 677 77 677 25 q 524 -36 630 -36 q 426 0 481 -36 q 347 96 376 39 q 297 2 340 45 q 200 -36 255 -36 q 108 8 146 -36 q 69 134 69 52 q 208 304 69 304 q 287 281 251 304 q 363 200 322 258 q 435 118 404 142 q 516 93 467 93 q 664 242 664 93 q 609 361 664 308 q 488 415 554 415 q 426 434 445 415 q 401 493 408 454 q 481 561 401 561 q 643 450 561 561 q 714 274 714 345 q 702 151 714 203 q 762 -25 725 41 q 849 -82 801 -82 m 215 93 q 237 93 215 93 q 284 118 260 93 q 308 179 308 142 q 284 240 308 215 q 215 265 260 265 q 143 239 169 265 q 118 181 118 214 q 143 120 118 148 q 215 93 169 93 m 527 760 l 353 595 q 276 534 299 548 l 208 518 q 82 561 137 518 q 27 664 27 604 q 50 726 27 698 q 118 746 80 746 q 196 675 155 746 l 224 620 q 260 597 249 597 l 271 598 l 288 609 l 322 643 l 465 826 l 527 760 z "},"స":{"ha":801,"x_min":27,"x_max":732,"o":"m 210 248 q 150 196 160 248 q 167 130 150 155 l 207 93 q 235 36 230 68 q 148 -36 235 -36 q 94 -4 116 -36 l 78 37 l 69 94 q 110 229 69 167 q 208 290 151 290 q 404 153 251 290 q 534 93 472 93 q 641 130 597 93 q 686 238 686 167 q 631 364 686 308 q 513 420 577 420 q 454 443 477 420 q 436 491 436 467 q 454 536 436 515 q 513 557 472 557 q 654 461 577 557 q 732 255 732 365 q 684 30 732 105 q 534 -36 632 -36 q 321 106 402 -36 q 210 248 239 248 m 527 760 l 353 595 q 276 534 299 548 l 208 518 q 82 561 137 518 q 27 664 27 604 q 50 726 27 698 q 118 746 80 746 q 196 675 155 746 l 224 620 q 260 597 249 597 l 271 598 l 288 609 l 322 643 l 465 826 l 527 760 z "},"హ":{"ha":1250,"x_min":27,"x_max":1181,"o":"m 1054 230 q 952 278 994 230 q 910 418 910 326 q 954 547 910 509 l 614 547 q 702 437 666 511 q 737 294 737 363 q 679 48 737 132 q 534 -36 621 -36 q 347 93 420 -36 q 300 -1 340 34 q 207 -36 260 -36 q 110 9 153 -36 q 69 134 69 53 q 105 269 69 215 q 208 321 146 321 q 369 205 288 321 q 449 114 401 151 q 534 89 484 89 q 648 144 605 89 q 691 287 691 199 q 643 447 691 374 q 538 547 600 518 l 513 547 l 547 632 l 1017 632 q 1181 442 1181 632 q 1054 230 1181 230 m 1138 458 q 1052 547 1138 529 q 991 521 1017 547 q 965 455 965 495 q 986 389 965 415 q 1048 363 1008 363 q 1113 388 1088 363 q 1138 458 1138 413 m 306 176 q 219 271 306 271 q 153 243 176 271 q 130 176 130 215 q 219 89 130 89 q 281 115 256 89 q 306 176 306 141 m 527 760 l 353 595 q 276 534 299 548 l 208 518 q 82 561 137 518 q 27 664 27 604 q 50 726 27 698 q 118 746 80 746 q 196 675 155 746 l 224 620 q 260 597 249 597 l 271 598 l 288 609 l 322 643 l 465 826 l 527 760 z "},"ఽ":{"ha":1255,"x_min":27,"x_max":1186,"o":"m 1186 -36 l 264 -36 q 91 11 155 -36 q 27 123 27 57 l 32 158 l 55 199 q 137 258 78 233 q 293 283 196 283 q 434 321 390 283 q 477 465 477 358 q 425 549 477 509 q 306 589 372 589 q 208 538 240 589 l 146 449 q 97 429 128 429 q 52 445 66 429 q 27 493 37 461 q 96 605 27 559 q 271 653 173 653 q 456 598 369 653 q 543 465 543 543 q 265 239 543 239 q 166 215 207 239 q 126 156 126 192 q 166 87 126 119 q 265 64 199 64 l 1186 64 l 1186 -36 z "},"ా":{"ha":666,"x_min":-467,"x_max":673,"o":"m 483 646 q 623 586 573 646 q 673 443 673 525 q 633 297 673 361 q 528 233 593 233 q 422 299 463 233 q 386 441 386 367 q 422 550 386 515 l -467 550 l -379 646 l 483 646 m 605 395 q 627 459 627 426 q 605 522 627 493 q 532 550 572 550 q 464 524 493 550 q 434 461 434 499 q 466 396 434 424 q 533 369 497 369 q 605 395 570 369 z "},"ి":{"ha":18,"x_min":66,"x_max":394,"o":"m 304 929 q 323 917 304 929 q 368 860 342 906 q 394 750 394 814 q 329 614 394 686 q 180 543 265 543 q 73 570 130 543 l 94 609 q 171 598 135 598 q 274 636 237 598 q 313 684 310 664 q 283 691 321 710 q 199 671 246 671 q 110 703 153 671 q 66 800 66 735 q 112 910 66 864 q 213 951 158 951 q 304 929 267 951 m 196 862 q 114 789 121 862 q 140 734 114 757 q 199 710 166 710 q 254 732 233 710 q 278 787 274 753 q 259 839 278 816 q 196 862 240 862 z "},"ీ":{"ha":18,"x_min":107,"x_max":434,"o":"m 107 794 q 183 938 107 903 q 121 1081 121 1001 q 162 1167 121 1131 q 278 1204 203 1204 q 417 1013 417 1204 l 367 1013 q 273 1113 367 1113 q 180 1038 180 1113 q 204 984 180 1006 q 264 954 228 962 q 382 904 329 954 q 434 761 434 853 q 376 611 434 670 q 228 550 322 550 q 114 575 180 550 l 135 618 l 175 605 l 217 598 q 322 639 281 598 q 363 709 363 680 q 333 702 363 718 q 232 671 280 671 q 146 703 185 671 q 107 794 107 735 m 240 862 q 158 789 169 862 q 184 734 158 757 q 246 710 210 710 q 298 732 281 710 q 322 787 315 753 q 301 842 322 814 q 240 862 281 862 z "},"ు":{"ha":431,"x_min":-27,"x_max":465,"o":"m 226 426 q 141 500 155 426 q 163 548 141 529 q 229 566 185 566 q 333 522 272 566 q 381 470 367 493 l 426 401 q 465 251 465 315 q 403 35 465 109 q 258 -39 342 -39 q 96 14 175 -39 q -18 153 45 48 l -27 171 l -27 203 l 32 155 q 166 100 109 109 l 231 91 q 369 136 324 91 q 413 260 413 182 q 226 426 413 426 z "},"ూ":{"ha":944,"x_min":-23,"x_max":949,"o":"m 903 545 q 949 402 949 488 q 908 256 949 317 q 867 212 890 228 q 803 199 837 199 q 702 260 743 199 q 661 403 661 328 q 700 515 661 479 l 370 515 q 418 421 358 518 q 479 251 479 324 q 418 34 479 107 q 269 -39 358 -39 q 167 -18 214 -39 q 62 52 121 4 q -23 166 23 89 l -23 212 q 116 126 39 162 q 262 91 192 91 q 376 146 331 91 q 420 260 420 201 q 360 429 420 347 q 251 515 310 493 l 219 515 l 219 609 l 760 609 q 903 545 842 609 m 808 331 q 829 331 808 331 q 876 357 851 331 q 901 422 901 383 q 874 488 901 461 q 807 515 848 515 q 738 488 766 515 q 710 423 710 461 q 737 358 710 385 q 808 331 764 331 z "},"ృ":{"ha":347,"x_min":-171,"x_max":304,"o":"m 7 -201 q 40 -267 39 -219 q 12 -345 41 -315 q -57 -372 -23 -372 q 39 -401 -41 -401 q 183 -308 114 -401 q 242 -189 214 -262 l 255 -112 l 262 -25 q 231 148 262 73 q 176 260 207 217 l 150 292 l 121 322 l 98 353 q 48 433 50 408 q 95 475 48 475 q 191 417 142 475 q 272 236 240 358 q 304 -18 304 114 l 299 -128 q 278 -224 292 -185 q 123 -426 233 -374 q 43 -449 73 -449 q -107 -402 -52 -449 q -171 -287 -171 -361 q -139 -203 -171 -235 q -65 -175 -103 -175 q 7 -201 -27 -175 m -66 -242 q -115 -270 -103 -248 q -118 -314 -126 -292 q -77 -341 -109 -337 q -30 -331 -46 -345 q -12 -297 -14 -317 q -21 -260 -9 -278 q -66 -242 -34 -242 z "},"ౄ":{"ha":712,"x_min":-171,"x_max":691,"o":"m 579 427 q 643 365 643 415 q 580 297 632 297 q 529 319 550 297 q 513 365 513 338 q 532 410 513 392 q 579 427 550 427 m -62 -224 q -18 -242 -30 -224 q -8 -280 -5 -260 q -27 -313 -11 -299 q -74 -323 -43 -328 q -114 -296 -105 -319 q -111 -252 -123 -274 q -62 -224 -100 -230 m 48 426 q 100 345 53 399 l 123 315 l 153 285 l 176 255 q 231 144 207 214 q 262 -25 262 71 l 255 -110 l 244 -185 q 185 -303 215 -256 q 40 -394 118 -394 q -45 -379 -37 -394 q 16 -353 -20 -379 q 47 -266 48 -319 q 11 -194 46 -214 q -61 -167 -21 -167 q -137 -198 -101 -167 q -171 -287 -171 -231 q -105 -410 -171 -367 q 46 -456 -50 -456 q 126 -433 77 -456 q 306 -128 271 -365 l 312 -18 q 258 240 312 116 q 160 411 205 354 l 158 417 l 484 417 q 477 399 484 420 q 467 323 467 381 q 495 223 467 265 q 574 183 525 183 q 652 217 623 183 q 677 253 670 235 q 691 342 691 296 q 676 418 691 388 q 655 458 661 449 q 613 489 643 468 q 507 509 582 509 l 48 509 l 48 426 z "},"ె":{"ha":153,"x_min":-45,"x_max":520,"o":"m 381 840 q 483 802 445 840 q 520 704 520 764 q 478 597 520 645 q 361 550 436 550 l 262 550 l 262 602 l 354 602 q 415 621 395 602 q 443 673 434 639 q 426 725 443 702 q 376 739 410 739 l -45 739 l -45 840 l 381 840 z "},"ే":{"ha":153,"x_min":-45,"x_max":522,"o":"m 370 1036 q 288 969 304 1036 q 431 837 288 917 q 486 801 456 828 q 520 703 520 762 q 478 597 520 645 q 361 550 436 550 l 264 550 l 264 602 l 354 602 q 415 621 395 602 q 443 673 434 639 q 426 725 443 702 q 376 739 410 739 l -45 739 l -45 840 l 344 840 q 230 997 230 906 q 272 1092 230 1054 q 367 1131 315 1131 q 449 1106 418 1131 q 500 1037 479 1092 q 522 922 522 983 l 484 922 q 438 1011 465 986 q 370 1036 411 1036 z "},"ై":{"ha":721,"x_min":46,"x_max":659,"o":"m 520 840 q 621 802 582 840 q 659 704 659 764 q 617 597 659 645 q 499 550 575 550 l 397 550 l 397 602 l 491 602 q 554 621 534 602 q 579 675 573 639 q 563 725 579 702 q 513 739 547 739 l 94 739 l 94 840 l 520 840 m 146 -404 q 75 -367 107 -404 l 59 -337 q 46 -274 46 -308 q 134 -155 46 -155 q 230 -274 230 -155 l 230 -294 l 223 -335 l 616 -335 l 582 -404 l 146 -404 m 194 -272 q 139 -212 194 -212 q 100 -223 128 -212 q 82 -272 82 -237 q 139 -333 82 -333 q 180 -315 158 -333 q 194 -272 189 -303 z "},"ొ":{"ha":707,"x_min":-223,"x_max":728,"o":"m -39 865 q 148 771 91 865 q 342 865 221 865 l 564 865 q 686 807 636 865 q 728 659 728 751 q 690 508 728 566 q 588 450 652 450 q 472 515 524 450 q 433 658 433 580 q 477 773 433 735 l 326 773 q 171 678 207 773 l 125 678 q 77 741 125 714 q -23 773 34 773 q -137 709 -137 773 q -91 638 -137 671 q 30 582 -45 605 l 66 559 q 89 529 89 540 l 30 536 q -159 598 -96 554 q -223 713 -223 643 q -170 824 -223 783 q -39 865 -118 865 m 579 582 q 602 582 579 582 q 652 613 625 582 q 678 682 678 643 q 655 747 678 721 q 583 773 632 773 q 509 747 534 773 q 484 682 484 721 q 508 613 484 643 q 579 582 532 582 z "},"ో":{"ha":712,"x_min":-223,"x_max":728,"o":"m 579 582 q 602 582 579 582 q 652 613 625 582 q 678 682 678 643 q 655 747 678 721 q 583 773 632 773 q 509 747 534 773 q 484 682 484 721 q 508 613 484 643 q 579 582 532 582 m -39 865 q 148 771 91 865 q 342 865 221 865 l 470 865 l 440 908 q 418 958 426 931 q 456 1059 418 1011 q 507 1092 474 1079 q 570 1106 540 1106 q 686 1051 643 1106 q 728 917 728 1002 l 680 917 q 673 954 680 938 q 558 1020 637 1020 q 479 956 479 1020 q 504 903 479 938 q 550 865 515 885 l 564 865 q 686 807 636 865 q 728 659 728 751 q 690 508 728 566 q 588 450 652 450 q 472 515 524 450 q 433 658 433 580 q 477 773 433 735 l 326 773 q 171 678 207 773 l 125 678 q 77 741 125 714 q -23 773 34 773 q -137 709 -137 773 q -91 638 -137 671 q 30 582 -45 605 l 66 559 q 89 529 89 540 l 30 536 q -159 598 -96 554 q -223 713 -223 643 q -170 824 -223 783 q -39 865 -118 865 z "},"ౌ":{"ha":775,"x_min":-324,"x_max":789,"o":"m 789 635 q 789 687 789 635 q 730 791 789 739 q 577 844 671 844 l -324 844 l -324 730 l 142 730 q 186 706 171 725 q 201 668 201 687 q 179 622 196 639 q 135 605 162 605 l -158 605 l -158 543 l 150 543 q 232 580 203 543 q 262 659 262 618 q 254 717 262 700 q 246 730 246 734 l 541 730 l 516 682 q 506 609 506 653 q 547 472 506 524 q 648 418 593 418 q 746 475 703 418 q 789 635 789 531 m 744 636 q 744 616 744 636 q 717 571 744 597 q 652 545 689 545 q 588 572 614 545 q 563 644 563 602 q 588 711 563 686 q 656 737 614 737 q 721 706 698 737 q 744 636 744 675 z "},"్":{"ha":20,"x_min":23,"x_max":682,"o":"m 682 974 l 155 974 q 96 910 96 974 q 113 857 96 881 q 150 833 130 833 l 454 833 l 454 737 l 167 737 q 115 722 130 737 q 94 675 100 707 q 114 623 94 643 q 157 598 126 605 l 349 598 l 349 556 l 160 556 q 61 593 96 556 q 27 680 27 630 q 103 807 27 764 q 23 940 23 851 q 55 1027 23 985 q 144 1068 87 1068 l 682 1068 l 682 974 z "},"ౕ":{"ha":354,"x_min":0,"x_max":351,"o":"m 0 1138 q 52 1246 0 1202 q 172 1289 103 1289 q 288 1239 240 1289 q 351 1120 337 1189 l 312 1120 q 266 1182 304 1156 q 178 1209 228 1209 q 96 1183 128 1209 q 64 1112 64 1157 q 106 1031 64 1067 q 126 997 148 995 l 109 997 q 29 1055 59 1015 q 0 1138 0 1095 z "},"ౖ":{"ha":0,"x_min":-80,"x_max":490,"o":"m 20 -404 q -52 -367 -20 -404 l -68 -337 q -80 -274 -80 -308 q 7 -155 -80 -155 q 103 -274 103 -155 l 103 -294 l 96 -335 l 490 -335 l 456 -404 l 20 -404 m 68 -272 q 12 -212 68 -212 q -27 -223 2 -212 q -45 -272 -45 -237 q 12 -333 -45 -333 q 53 -315 32 -333 q 68 -272 62 -303 z "},"ౘ":{"ha":889,"x_min":27,"x_max":816,"o":"m 73 873 l 28 953 l 502 953 l 495 1004 l 495 1027 q 609 1166 495 1166 q 712 1027 712 1166 q 698 951 712 986 l 682 915 q 595 873 639 873 l 73 873 m 602 1102 q 548 1079 566 1102 q 532 1027 532 1045 q 550 978 540 992 q 602 956 577 956 q 671 1029 671 956 q 648 1086 671 1070 q 602 1102 614 1102 m 481 191 q 625 85 520 85 q 718 126 682 85 q 753 242 753 167 q 670 447 753 363 q 468 552 586 531 q 321 584 392 552 q 223 680 223 629 q 301 764 223 764 q 401 714 347 764 l 459 641 q 502 616 486 621 l 518 620 l 534 630 l 767 880 l 816 814 l 547 586 l 579 572 q 698 499 641 547 q 808 246 808 401 q 767 28 808 91 q 627 -36 725 -36 q 467 64 529 -36 q 402 -14 433 7 q 304 -36 370 -36 q 194 2 237 -36 q 155 113 155 45 q 203 255 155 182 l 27 255 l 27 301 l 264 301 q 224 171 224 223 q 322 85 224 85 q 395 106 374 85 q 449 191 417 126 l 481 191 z "},"ౙ":{"ha":800,"x_min":27,"x_max":730,"o":"m 73 771 l 28 853 l 502 853 l 495 901 l 495 924 q 609 1065 495 1065 q 712 924 712 1065 q 698 848 712 885 l 682 814 q 595 771 639 771 l 73 771 m 602 1001 q 548 978 566 1001 q 532 928 532 942 q 550 876 540 890 q 602 856 577 856 q 671 928 671 856 q 648 986 671 970 q 602 1001 614 1001 m 730 125 q 685 8 730 52 q 568 -36 639 -36 q 392 80 458 -36 q 313 -12 360 25 l 278 -30 l 217 -36 q 82 5 137 -36 q 27 118 27 46 q 64 208 27 160 q 175 290 85 228 q 304 442 304 383 q 275 499 304 475 q 201 524 246 524 q 132 472 132 524 q 151 415 132 443 q 138 372 151 386 q 93 353 125 358 q 27 422 27 353 q 74 532 27 491 q 192 572 121 572 q 342 516 283 572 q 374 479 356 504 q 572 392 456 392 q 666 450 666 392 q 621 518 666 484 q 513 552 575 552 l 513 591 q 670 546 609 591 q 730 436 730 500 q 690 332 730 372 q 593 292 650 292 q 354 459 479 292 l 358 424 q 278 310 358 390 l 153 207 q 123 146 123 171 q 230 89 123 89 q 334 124 297 89 q 370 198 370 158 l 413 198 q 460 119 427 150 q 548 89 493 89 q 635 124 604 89 q 666 233 666 158 l 705 233 l 719 176 l 730 125 z "},"ౠ":{"ha":2201,"x_min":27,"x_max":2133,"o":"m 2087 422 q 2059 488 2087 461 q 1992 515 2032 515 q 1924 488 1952 515 q 1896 423 1896 461 q 1923 358 1896 385 q 1993 331 1950 331 q 2062 357 2037 331 q 2087 422 2087 383 m 488 515 q 557 570 488 556 q 668 509 620 570 l 703 449 l 732 370 l 741 303 l 744 242 l 743 176 l 773 155 l 837 121 l 903 100 l 972 93 q 1105 137 1059 93 q 1150 258 1150 182 q 965 424 1150 424 q 906 444 926 424 q 878 500 887 465 q 901 547 878 531 q 966 566 922 566 q 1072 522 1010 566 q 1122 470 1104 493 l 1165 401 q 1204 251 1204 315 l 1200 185 l 1298 126 q 1447 93 1378 93 q 1561 147 1515 93 q 1606 258 1606 201 q 1547 427 1606 347 q 1435 515 1494 493 l 1403 515 l 1403 613 l 1944 613 q 2085 547 2028 613 q 2133 402 2133 488 q 2096 256 2133 315 q 1993 199 2060 199 q 1886 258 1927 199 q 1847 403 1847 328 q 1886 515 1847 479 l 1560 515 q 1604 419 1544 515 q 1665 251 1665 324 q 1605 34 1665 107 q 1455 -39 1546 -39 q 1353 -18 1400 -39 q 1186 125 1254 27 q 1143 34 1172 71 q 996 -39 1081 -39 q 833 14 912 -39 q 755 100 801 37 l 737 132 q 693 23 725 62 q 564 -36 637 -36 q 458 -10 490 -36 q 386 75 426 16 q 320 -8 358 20 q 210 -36 281 -36 q 91 0 139 -36 q 43 109 43 39 q 78 185 43 150 q 118 223 93 205 l 176 269 l 237 312 l 280 353 q 313 430 313 386 q 286 494 313 474 q 223 515 258 515 q 137 461 150 515 l 139 434 l 146 420 q 87 358 146 372 q 43 377 68 358 q 27 424 32 390 q 77 533 27 495 q 192 572 126 572 l 226 570 q 345 500 281 570 q 369 422 369 468 q 336 340 369 376 q 231 253 303 304 l 144 182 q 121 139 128 164 q 148 100 121 119 q 214 85 182 85 q 315 112 281 85 q 363 198 349 126 l 413 198 q 557 85 433 85 q 668 124 634 85 q 702 255 702 162 q 675 330 702 290 q 621 396 648 370 q 550 442 593 422 q 488 515 488 463 z "},"ౡ":{"ha":1549,"x_min":27,"x_max":1480,"o":"m 1241 573 q 1343 509 1250 509 q 1408 527 1384 509 q 1433 575 1433 556 q 1337 641 1433 641 q 1241 573 1241 641 m 785 643 l 823 757 l 1293 757 q 1429 692 1378 757 q 1480 546 1480 627 q 1441 404 1480 465 q 1338 344 1403 344 q 1232 401 1273 344 q 1195 533 1195 463 q 1229 641 1195 604 l 860 641 q 898 540 880 621 q 917 354 917 459 q 845 68 917 171 q 650 -36 773 -36 q 484 16 547 -36 q 410 208 410 77 q 530 417 410 288 q 650 595 650 545 q 527 739 650 739 q 433 677 475 739 q 394 495 394 614 l 345 495 q 303 683 345 614 q 194 751 260 751 q 125 710 153 751 q 96 592 96 668 q 132 436 96 516 l 91 436 q 27 618 27 529 q 70 806 27 737 q 187 874 114 874 q 299 823 260 874 q 365 691 328 791 q 399 767 377 734 l 429 823 q 543 874 468 874 q 667 812 618 874 q 716 645 716 750 q 588 405 716 541 q 459 204 459 269 q 512 98 459 139 q 656 57 564 57 q 806 139 748 57 q 864 374 864 221 q 833 548 864 474 q 785 643 814 614 z "},"ౢ":{"ha":16,"x_min":-848,"x_max":-253,"o":"m -379 -680 q -338 -728 -338 -680 q -377 -810 -338 -776 q -489 -844 -417 -844 q -596 -809 -561 -844 q -630 -716 -630 -775 q -548 -580 -630 -639 q -392 -499 -472 -541 q -312 -411 -312 -456 q -343 -341 -312 -367 q -423 -315 -374 -315 q -504 -351 -472 -315 q -557 -440 -518 -367 q -616 -349 -586 -381 q -699 -315 -652 -315 q -777 -343 -746 -315 q -808 -411 -808 -370 q -798 -447 -808 -424 q -778 -479 -778 -474 l -778 -491 q -792 -495 -778 -495 q -808 -486 -803 -491 q -848 -379 -848 -454 q -821 -296 -848 -333 q -705 -237 -782 -237 q -597 -276 -629 -237 q -557 -347 -570 -328 q -506 -274 -529 -294 q -396 -237 -467 -237 q -289 -281 -326 -237 q -253 -390 -253 -326 q -340 -522 -253 -472 q -504 -600 -422 -563 q -591 -721 -591 -648 q -567 -777 -591 -753 q -506 -801 -543 -801 q -429 -741 -449 -801 q -379 -680 -410 -680 z "},"ౣ":{"ha":9,"x_min":-910,"x_max":-141,"o":"m -557 -808 q -481 -721 -481 -808 q -486 -680 -481 -702 q -491 -661 -486 -671 l -491 -652 q -481 -629 -491 -637 q -459 -621 -470 -621 l -235 -621 q -169 -649 -198 -621 q -141 -719 -141 -677 q -167 -791 -141 -762 q -231 -821 -194 -821 q -296 -792 -269 -821 q -324 -731 -324 -764 q -303 -673 -324 -698 l -438 -673 q -426 -739 -426 -700 q -459 -813 -426 -778 q -557 -848 -491 -848 q -658 -812 -623 -848 q -693 -718 -693 -776 q -611 -584 -693 -639 q -452 -499 -532 -543 q -372 -411 -372 -456 q -403 -342 -372 -367 q -484 -317 -434 -317 q -566 -351 -534 -317 q -618 -440 -579 -367 q -678 -349 -648 -381 q -761 -317 -714 -317 q -840 -344 -808 -317 q -871 -411 -871 -370 q -860 -447 -871 -424 q -843 -475 -846 -467 q -840 -484 -840 -483 q -839 -491 -839 -486 q -855 -497 -839 -497 q -871 -486 -865 -493 q -910 -379 -910 -454 q -883 -296 -910 -333 q -766 -237 -842 -237 q -657 -276 -689 -237 q -618 -347 -632 -328 q -566 -274 -589 -294 q -458 -237 -529 -237 q -350 -281 -386 -237 q -313 -390 -313 -326 q -401 -524 -313 -474 q -564 -600 -484 -563 q -652 -723 -652 -648 q -623 -782 -652 -755 q -557 -808 -595 -808 m -196 -678 q -232 -662 -210 -662 q -270 -678 -255 -662 q -285 -719 -285 -694 q -255 -766 -285 -751 q -229 -771 -246 -771 q -194 -757 -212 -771 q -176 -719 -176 -743 q -196 -678 -176 -696 z "},"౦":{"ha":739,"x_min":27,"x_max":670,"o":"m 345 604 q 417 604 345 604 q 579 510 488 604 q 670 286 670 417 q 583 60 670 155 q 353 -36 497 -36 q 118 58 208 -36 q 27 282 27 151 q 115 508 27 413 q 345 604 203 604 m 348 85 q 400 85 348 85 q 514 153 452 85 q 575 321 575 221 q 519 488 575 420 q 354 556 463 556 q 183 486 246 556 q 121 319 121 417 q 183 153 121 221 q 348 85 244 85 z "},"౧":{"ha":855,"x_min":27,"x_max":785,"o":"m 785 251 q 718 44 785 126 q 573 -39 650 -39 q 529 -4 529 -39 q 561 43 529 16 l 652 85 q 716 230 716 134 q 630 408 716 326 q 405 491 547 491 q 173 413 264 491 q 96 256 96 342 q 155 109 96 169 q 256 39 192 71 q 283 7 281 28 q 223 -39 283 -39 q 95 38 164 -39 q 27 251 27 116 q 135 518 27 422 q 401 604 237 604 q 666 527 564 604 q 785 251 785 431 z "},"౨":{"ha":962,"x_min":27,"x_max":892,"o":"m 527 584 q 796 504 700 584 q 892 288 892 424 q 812 58 892 151 q 579 -36 732 -36 l 27 -36 l 27 73 l 600 73 q 762 136 693 73 q 832 294 832 199 q 783 430 832 361 q 668 499 734 499 q 702 402 702 459 q 648 297 702 345 q 524 249 595 249 q 408 296 452 249 q 363 415 363 342 q 407 524 363 463 q 527 584 450 584 m 530 301 q 552 301 530 301 q 612 331 575 301 q 648 409 648 361 q 615 487 648 456 q 535 518 582 518 q 457 491 488 518 q 426 413 426 465 q 455 331 426 361 q 530 301 484 301 z "},"౩":{"ha":648,"x_min":27,"x_max":579,"o":"m 579 134 q 513 9 579 57 q 306 -36 445 -36 q 36 55 114 -36 l 27 75 q 57 118 27 105 q 97 116 80 125 q 144 75 114 107 q 214 25 169 53 q 323 4 262 4 q 435 33 385 4 q 486 111 486 62 q 448 193 486 160 q 354 226 410 226 l 214 226 l 214 321 l 329 321 q 486 436 486 321 q 445 520 486 484 q 341 556 404 556 q 238 530 278 556 q 198 466 198 504 q 150 427 198 427 l 114 433 q 100 465 105 442 q 160 564 100 524 q 325 604 221 604 q 495 556 429 604 q 561 447 561 509 q 529 349 561 385 q 420 285 497 313 q 579 134 579 233 z "},"౪":{"ha":693,"x_min":27,"x_max":625,"o":"m 625 515 q 386 215 625 308 q 449 112 449 180 q 409 4 449 45 q 307 -36 369 -36 q 201 0 246 -36 q 162 101 162 41 q 212 205 162 160 q 27 433 27 283 q 57 548 27 500 q 128 597 87 597 q 176 540 176 597 q 150 479 176 518 q 121 404 128 434 q 167 288 121 335 q 292 242 219 242 q 419 275 365 242 q 507 361 474 308 q 540 453 540 415 q 522 540 540 491 l 484 598 q 545 662 484 662 q 604 629 572 662 q 625 515 625 588 m 372 125 q 356 177 372 155 q 308 199 340 199 q 259 177 276 199 q 239 125 242 155 q 304 48 239 59 q 372 125 372 48 z "},"౫":{"ha":819,"x_min":27,"x_max":751,"o":"m 751 139 q 712 11 751 57 q 614 -36 673 -36 q 515 7 556 -36 q 477 123 477 52 l 474 199 q 465 251 474 231 q 435 278 459 278 q 361 256 411 278 q 278 201 312 235 l 240 164 l 199 110 l 139 21 q 85 -2 123 -2 q 39 47 39 -2 q 94 159 39 96 q 246 271 150 223 q 116 475 223 415 q 27 554 28 534 q 80 604 27 604 q 166 554 110 604 q 258 434 210 511 q 297 294 281 372 l 365 313 q 326 436 326 367 q 364 555 326 506 q 459 604 402 604 q 552 552 516 604 q 593 423 593 499 q 540 297 593 347 q 571 267 563 285 q 579 198 579 249 q 584 132 579 146 q 641 4 584 4 q 672 16 653 4 q 691 73 691 28 l 691 107 l 684 139 l 751 139 m 527 452 q 458 552 527 547 q 406 527 434 552 q 386 448 386 497 q 406 363 386 399 q 459 328 426 328 q 527 452 527 328 z "},"౬":{"ha":935,"x_min":27,"x_max":865,"o":"m 30 128 q 137 290 30 242 q 60 345 93 303 q 27 450 27 388 q 73 554 27 513 q 255 604 123 604 l 255 552 q 148 523 183 552 q 112 449 112 493 q 141 380 112 404 q 214 356 169 356 l 497 356 l 497 239 l 230 239 q 157 217 185 239 q 128 162 128 196 q 153 101 128 128 l 187 84 q 230 77 203 77 l 865 77 l 865 -36 l 205 -36 q 78 10 126 -36 q 30 128 30 55 z "},"౭":{"ha":726,"x_min":27,"x_max":659,"o":"m 659 153 q 572 14 659 69 q 352 -36 484 -36 q 123 12 219 -36 q 27 153 27 61 q 73 248 27 203 q 353 331 151 331 q 591 442 591 331 q 536 529 591 493 q 411 566 484 566 q 278 531 338 566 q 217 436 217 495 q 169 388 217 392 q 114 436 125 388 q 191 562 114 509 q 389 614 269 614 q 580 564 509 614 q 659 435 659 516 q 575 296 659 354 q 481 256 540 274 q 420 248 450 253 q 356 242 390 242 q 166 191 228 242 q 132 134 137 171 q 196 43 132 84 q 326 4 274 4 q 491 38 427 4 q 556 146 556 73 q 572 176 556 167 l 613 192 q 659 153 659 192 z "},"౮":{"ha":926,"x_min":27,"x_max":856,"o":"m 856 495 l 522 495 l 548 431 q 572 267 572 353 q 497 46 572 128 q 307 -36 422 -36 q 110 47 192 -36 q 27 271 27 130 q 79 433 27 360 q 185 506 132 506 q 224 461 224 506 l 189 429 l 141 370 q 112 290 112 329 q 303 73 112 73 q 497 319 497 73 q 454 493 497 424 q 354 604 443 515 l 856 604 l 856 495 z "},"౯":{"ha":935,"x_min":27,"x_max":865,"o":"m 865 491 l 230 491 q 128 411 128 491 q 151 353 128 385 q 230 331 178 331 l 497 331 l 497 215 l 215 215 q 114 125 114 215 q 150 46 114 84 q 255 16 187 16 l 255 -36 q 83 7 139 -36 q 27 125 27 50 q 57 221 27 176 q 135 280 87 265 q 32 442 32 333 q 77 552 32 500 q 207 604 121 604 l 865 604 l 865 491 z "},"౸":{"ha":620,"x_min":18,"x_max":577,"o":"m 101 149 q 82 169 101 149 q 41 242 64 189 q 18 357 18 296 q 37 467 18 418 q 93 556 57 516 q 296 641 169 641 q 495 559 413 641 q 577 361 577 477 q 499 151 577 233 q 474 130 491 141 l 495 119 q 556 61 543 85 q 568 7 568 37 q 535 -59 568 -23 q 434 -135 502 -94 q 312 -199 365 -176 l 264 -221 q 246 -223 256 -223 q 225 -213 235 -223 q 215 -191 215 -203 q 222 -172 215 -180 q 239 -164 228 -164 l 267 -148 q 491 11 491 -55 q 450 75 491 48 q 415 93 433 84 l 413 93 q 300 69 360 69 q 189 89 240 69 q 101 149 137 109 m 85 379 q 105 289 85 329 q 157 224 125 249 q 297 180 215 180 q 442 233 381 180 q 490 299 470 260 q 509 381 509 338 q 492 461 509 424 q 445 527 475 499 q 297 584 385 584 q 153 531 215 584 q 85 379 85 472 z "},"౹":{"ha":128,"x_min":18,"x_max":84,"o":"m 18 630 q 52 653 18 653 q 82 636 78 653 q 84 625 84 627 l 84 7 q 52 -9 80 -9 q 18 4 21 -9 q 18 11 18 9 l 18 630 z "},"౺":{"ha":402,"x_min":18,"x_max":358,"o":"m 287 374 l 287 670 q 298 691 287 684 q 322 698 310 698 q 356 675 353 698 l 358 662 l 358 20 l 356 7 q 321 -12 353 -12 q 299 -7 310 -12 q 288 4 288 -2 q 287 14 287 11 l 287 304 q 224 287 251 287 l 182 287 q 34 370 78 287 q 18 445 18 401 l 18 670 q 53 698 18 698 q 87 675 84 698 l 89 662 l 89 442 q 118 369 89 388 q 196 349 144 349 q 287 374 248 349 z "},"౻":{"ha":661,"x_min":18,"x_max":618,"o":"m 582 687 q 618 666 611 687 l 618 7 q 582 -12 611 -12 q 559 -7 570 -12 q 548 4 548 -2 l 548 299 q 465 281 513 281 q 333 319 381 281 q 321 333 324 326 q 306 322 313 331 q 182 281 258 281 q 34 365 75 281 q 18 438 18 397 l 18 666 q 29 682 20 675 q 53 689 39 689 q 87 666 84 689 l 87 434 q 146 349 87 361 q 182 345 164 345 q 259 367 235 345 q 283 433 283 388 l 283 666 q 296 681 285 675 q 317 687 306 687 q 353 666 353 687 l 353 434 q 447 345 353 345 q 548 367 509 345 l 548 666 q 559 681 548 675 q 582 687 570 687 z "},"౼":{"ha":783,"x_min":18,"x_max":741,"o":"m 723 472 q 726 471 723 472 q 735 462 730 470 q 741 434 741 454 q 723 406 741 413 l 716 406 q 705 404 710 406 q 37 404 370 404 q 18 442 18 417 q 37 472 18 467 q 46 474 43 474 q 548 474 379 474 q 723 472 716 474 z "},"౽":{"ha":924,"x_min":18,"x_max":883,"o":"m 18 604 q 53 641 18 641 q 356 641 205 641 q 506 598 452 641 q 559 481 559 556 q 506 369 559 417 q 308 281 447 315 q 128 207 144 246 q 121 182 121 192 q 158 129 121 153 q 269 105 196 105 q 842 105 556 105 q 866 96 849 105 q 882 60 883 87 q 868 22 881 32 q 849 12 855 12 q 313 12 580 12 q 94 55 162 12 q 25 185 25 100 q 71 283 25 249 q 229 350 123 324 q 374 390 335 376 q 468 483 468 424 q 440 542 468 520 q 356 564 411 564 q 59 564 207 564 q 18 604 18 564 z "},"౾":{"ha":908,"x_min":18,"x_max":864,"o":"m 864 64 q 833 12 864 16 l 301 12 l 242 14 q 57 130 57 14 q 192 237 57 223 l 264 246 q 335 280 329 251 q 309 302 335 297 q 231 306 283 306 q 139 313 178 306 q 75 331 100 319 q 30 402 30 354 q 61 467 30 449 q 148 494 93 488 q 232 507 203 500 q 278 518 262 513 q 308 552 308 529 q 276 575 308 572 l 242 577 l 203 580 q 83 580 125 580 q 34 580 41 580 q 18 613 18 584 q 37 641 18 641 l 48 643 l 203 643 q 374 591 340 643 q 386 549 386 575 q 379 507 386 524 q 354 477 372 491 q 231 440 322 454 l 166 433 q 126 426 141 433 q 110 418 114 422 q 107 406 107 413 q 109 394 107 399 q 125 385 110 388 q 215 376 176 376 l 267 376 q 355 361 321 376 q 402 329 390 347 q 413 285 413 312 q 370 207 413 230 q 203 169 337 189 l 189 169 q 175 166 185 169 q 161 163 166 164 q 150 160 157 162 q 137 142 137 155 q 155 109 132 125 q 194 93 178 93 l 217 93 l 299 91 l 833 91 q 856 85 848 87 q 864 64 864 84 z "},"౿":{"ha":986,"x_min":18,"x_max":944,"o":"m 940 313 l 933 299 q 791 126 874 191 q 628 37 707 62 q 458 11 548 11 q 210 68 315 11 q 131 124 176 87 q 52 232 85 160 q 18 375 18 304 q 32 490 18 445 q 230 636 82 636 q 365 548 329 636 q 372 486 372 518 q 359 429 372 454 q 328 390 345 404 q 250 356 283 356 q 194 366 217 356 q 155 392 171 376 q 119 490 119 431 q 125 532 119 511 q 89 475 94 493 q 80 383 80 438 q 110 264 80 328 q 191 171 141 201 q 463 105 299 105 q 550 110 509 105 q 677 162 605 112 q 787 248 748 212 q 867 347 826 283 l 880 360 q 898 365 885 365 q 928 353 912 365 q 944 329 944 340 q 940 313 944 319 m 241 420 q 259 420 241 420 q 294 441 276 420 q 312 484 312 461 q 274 566 312 540 q 242 577 260 577 q 187 547 212 577 q 171 494 171 524 q 189 442 171 465 q 241 420 207 420 z "},"‍":{"ha":0,"x_min":0,"x_max":239,"o":"m 0 -351 l 0 889 l 239 889 l 239 833 l 62 833 l 62 -351 l 0 -351 z "}}}
